<?xml version="1.0" standalone="no"?>
<!DOCTYPE svg PUBLIC "-//W3C//DTD SVG 1.1//EN" "http://www.w3.org/Graphics/SVG/1.1/DTD/svg11.dtd">
<svg xmlns="http://www.w3.org/2000/svg">
<defs >
<font id="CrimsonPro" horiz-adv-x="513" ><font-face
    font-family="Crimson Pro Light"
    units-per-em="1024"
    panose-1="0 0 0 0 0 0 0 0 0 0"
    ascent="918"
    descent="-220"
    alphabetic="0" />
<glyph unicode=" " horiz-adv-x="191" />
<glyph unicode="!" horiz-adv-x="257" d="M105 177L185 650Q187 665 193 675T209 692T229 698Q243 698 252 690T263 669T261 638L136 169L105 177ZM94 -10Q71 -10 56 5T40 42Q40 57 47 68T66 87T94 94Q117 94 132 80T148 42Q148 21 133 6T94 -10Z" />
<glyph unicode="&quot;" horiz-adv-x="385" d="M215 727Q236 727 249 712T255 660Q252 646 243 625T223 579T202 530T183 487H152Q152 505 152 533T152 589T154 639T156 670Q162 699 177 713T215 727ZM382 727Q403 727 416 712T422 660Q419 646 410 625T390 579T369
530T350 487H319Q319 505 319 533T319 589T321 639T323 670Q329 699 344 713T382 727Z" />
<glyph unicode="#" horiz-adv-x="525" d="M252 0L441 587H488L297 0H252ZM36 173L40 218H485L481 173H36ZM72 0L262 587H308L120 0H72ZM75 369L79 414H524L520 369H75Z" />
<glyph unicode="$" horiz-adv-x="471" d="M190 -9Q148 -9 104 1T26 28L49 152L89 154L94 67Q116 53 143 45T201 37Q238 37 269 49T320 86T340 147Q340 178 323 199T279 236T222 268T164 304T120 351T103 418Q103 475 136 515T222 576T335 597Q363 597 386 594T431
586T470 572L450 454L413 452L403 537Q376 553 322 553Q263 553 221 525T179 441Q179 411 196 390T240 352T297 318T355 281T399 235T416 171Q416 130 397 97T344 40T271 4T190 -9ZM158 -116L332 703H371L197 -116H158Z" />
<glyph unicode="%" horiz-adv-x="748" d="M107 -13L72 25L673 601L708 563L107 -13ZM213 287Q167 287 131 306T74 361T53 441Q53 484 75 519T133 574T212 594Q257 594 293 575T349 522T370 441Q370 397 348 362T291 307T213 287ZM212 338Q254 338 282 367T311
442Q311 488 283 516T212 544Q170 544 143 516T115 442Q115 397 142 368T212 338ZM571 -6Q525 -6 489 13T432 67T411 147Q411 190 433 225T491 280T571 300Q615 300 651 281T708 228T729 147Q729 103 707 69T649 14T571 -6ZM571 45Q612 45 641 73T670 148Q670 194
641 222T571 251Q528 251 501 222T473 148Q473 103 500 74T571 45Z" />
<glyph unicode="&amp;" horiz-adv-x="694" d="M210 -7Q121 -7 71 29T21 133Q21 172 46 211T121 286T249 352Q356 396 407 448T459 559Q459 591 443 609T395 628Q360 628 333 606T289 544T273 452Q273 425 279 396T301 329T345 230Q375 168 407 126T477 64T561
43Q586 43 610 50T658 74L670 50Q644 21 608 7T532 -7Q477 -7 435 13T356 79T284 196Q253 258 236 300T212 375T204 442Q204 508 231 559T304 639T404 668Q459 668 491 641T524 563Q524 518 498 478T413 398T256 315Q176 279 139 237T101 144Q101 99 135 71T231
43Q318 43 388 99T527 281L459 292L468 326L670 327L665 293L592 281Q491 131 400 62T210 -7Z" />
<glyph unicode="&apos;" horiz-adv-x="219" d="M215 727Q236 727 249 712T255 660Q252 646 243 625T223 579T202 530T183 487H152Q152 505 152 533T152 589T154 639T156 670Q162 699 177 713T215 727Z" />
<glyph unicode="(" horiz-adv-x="351" d="M434 729L454 698Q387 644 334 575T244 427T188 262T168 92Q168 31 178 -22T208 -120T258 -205L230 -229Q161 -156 128 -68T95 118Q95 243 136 354T253 560T434 729Z" />
<glyph unicode=")" horiz-adv-x="351" d="M-67 -229L-87 -198Q-20 -144 33 -75T123 73T179 238T199 408Q199 469 189 522T159 620T108 705L137 729Q206 656 239 568T272 382Q272 258 231 147T114 -59T-67 -229Z" />
<glyph unicode="*" horiz-adv-x="422" d="M450 574Q454 563 447 552T421 533Q397 525 366 522T307 515Q327 495 352 474T393 430Q404 414 404 401T392 379Q382 371 369 375T345 393Q326 417 313 450T285 507Q272 484 258 451T226 393Q215 379 202 376T178 379Q167
386 167 400T178 430Q193 452 218 473T263 515Q237 519 205 522T150 533Q132 539 124 551T120 574Q124 587 137 592T167 590Q193 582 221 565T273 537Q271 564 263 597T255 658Q255 677 264 687T285 698Q298 698 306 688T315 658Q315 630 308 597T297 537Q322 549
350 566T403 590Q421 596 434 592T450 574Z" />
<glyph unicode="+" horiz-adv-x="540" d="M498 280L486 226H59L71 280H498ZM298 471H352L260 37H206L298 471Z" />
<glyph unicode="," horiz-adv-x="219" d="M-13 -166L-28 -143Q9 -117 29 -89T49 -37Q49 -24 45 -14T36 4T27 22T23 42Q23 62 39 78T79 94Q102 94 114 79T127 40Q127 6 108 -34T57 -109T-13 -166Z" />
<glyph unicode="-" horiz-adv-x="368" d="M74 177L87 237L297 264L284 205L74 177Z" />
<glyph unicode="." horiz-adv-x="219" d="M73 -10Q49 -10 34 5T19 42Q19 57 26 68T45 87T73 94Q96 94 111 80T127 42Q127 21 112 6T73 -10Z" />
<glyph unicode="/" horiz-adv-x="351" d="M-66 -180L424 728H484L-8 -180H-66Z" />
<glyph unicode="0" horiz-adv-x="568" d="M249 -9Q194 -9 153 17T89 92T67 210Q67 279 89 347T152 472T247 562T366 596Q445 596 491 539T538 382Q538 331 525 277T486 172T425 80T345 15T249 -9ZM261 33Q301 33 333 57T388 121T427 208T451 302T459 386Q459 467
432 510T352 554Q312 554 280 531T223 469T182 385T157 291T148 204Q148 126 178 80T261 33Z" />
<glyph unicode="1" horiz-adv-x="329" d="M198 187Q188 136 183 109T175 68T172 46L247 33L238 0H18L23 33L103 46Q106 56 110 72T120 115T136 187L183 408Q188 431 192 456T200 509L114 489L118 526L287 596Q283 580 276 548T260 473T239 377L198 187Z" />
<glyph unicode="2" horiz-adv-x="479" d="M6 -2L8 28Q128 119 205 189T319 318T356 436Q356 485 331 510T255 536Q213 536 174 516T101 455L84 471Q112 529 167 562T286 596Q352 596 392 560T432 460Q432 393 388 326T265 191T87 50V66H306Q313 66 321 66T336
68L388 158L425 155L371 -4Q360 -3 351 -2T331 -1T309 0T279 0H79Q60 0 42 0T6 -2Z" />
<glyph unicode="3" horiz-adv-x="483" d="M172 -9Q107 -9 70 13T33 65Q33 80 39 89T56 109Q71 92 92 74T140 45T201 33Q241 33 274 54T327 110T347 186Q347 235 316 259T230 284Q217 284 204 283T176 280L178 320Q269 329 315 366T362 460Q362 495 338 515T268
536Q233 536 199 521T136 474L117 491Q145 538 196 567T300 596Q358 596 395 566T433 480Q433 441 413 408T358 351T275 309L264 322Q339 321 378 289T418 200Q418 144 385 97T295 20T172 -9Z" />
<glyph unicode="4" horiz-adv-x="515" d="M364 170Q357 127 351 94T342 46L399 33L390 0H189L193 33L274 46Q279 61 285 93T301 170L372 512L399 511L95 206L104 227H467L456 170H39L38 200L427 591H455Q446 555 439 520T423 449L364 170Z" />
<glyph unicode="5" horiz-adv-x="478" d="M332 169Q332 227 283 257T119 302L215 587H466L443 517H239L175 322L160 363Q283 348 343 307T404 188Q404 138 374 93T291 20T166 -9Q97 -9 59 14T20 63Q20 78 25 89T42 109Q69 77 106 55T191 33Q231 33 262 52T313
103T332 169Z" />
<glyph unicode="6" horiz-adv-x="510" d="M133 241Q153 271 177 293T232 327T299 340Q341 340 373 321T425 269T444 193Q444 137 416 91T341 18T237 -9Q156 -9 110 39T64 175Q64 248 95 318T185 448T319 548T485 605L495 565Q415 547 350 509T239 416T167 298T141
166Q141 106 169 70T246 34Q303 34 336 73T369 178Q369 225 341 254T265 283Q231 283 196 263T136 208L133 241Z" />
<glyph unicode="7" horiz-adv-x="466" d="M173 0H102L108 27L465 550L461 516H196Q186 516 178 516T164 513L112 429L77 433L135 591Q146 590 155 589T174 588T196 587T224 587H446Q464 587 483 587T522 588L520 558L173 0Z" />
<glyph unicode="8" horiz-adv-x="539" d="M233 -9Q179 -9 140 6T78 51T56 119Q56 185 103 231T229 304L255 289Q194 259 160 220T126 133Q126 87 158 61T248 35Q311 35 348 67T386 156Q386 188 369 209T324 247T265 278T206 313T161 360T144 429Q144 472 169 510T240
572T346 596Q414 596 454 562T494 473Q494 421 455 372T356 291L337 305Q384 346 406 386T429 470Q429 510 405 533T335 557Q277 557 244 524T211 445Q211 412 228 389T273 348T332 315T390 279T435 234T453 168Q453 123 424 83T345 17T233 -9Z" />
<glyph unicode="9" horiz-adv-x="510" d="M411 346Q393 317 368 295T313 260T247 247Q206 247 172 266T119 319T100 394Q100 451 128 496T204 569T308 596Q388 596 434 548T481 415Q481 341 449 270T361 140T228 39T62 -18L51 22Q131 40 196 78T307 171T378 289T403
421Q403 481 377 517T300 553Q243 553 210 514T176 409Q176 363 205 334T281 304Q316 304 350 324T410 379L411 346Z" />
<glyph unicode=":" horiz-adv-x="219" d="M74 -10Q50 -10 35 5T20 42Q20 65 35 79T74 94Q97 94 112 80T128 42Q128 21 113 6T74 -10ZM146 334Q122 334 107 348T92 386Q92 408 107 422T146 437Q169 437 184 423T200 386Q200 363 185 349T146 334Z" />
<glyph unicode=";" horiz-adv-x="219" d="M-13 -166L-28 -143Q9 -117 29 -89T49 -37Q49 -24 45 -14T36 4T27 22T23 42Q23 62 39 78T79 94Q102 94 114 79T127 40Q127 6 108 -34T57 -109T-13 -166ZM145 334Q122 334 107 348T91 386Q91 408 106 422T145 437Q168 437
183 423T199 386Q199 363 184 349T145 334Z" />
<glyph unicode="&lt;" horiz-adv-x="540" d="M67 284L543 478L529 411L85 231L93 268L460 89L447 29L55 224L67 284Z" />
<glyph unicode="=" horiz-adv-x="540" d="M520 371L508 313H74L86 371H520ZM482 193L470 135H36L48 193H482Z" />
<glyph unicode="&gt;" horiz-adv-x="540" d="M489 224L13 29L27 96L471 276L464 238L97 418L110 478L501 284L489 224Z" />
<glyph unicode="?" horiz-adv-x="351" d="M123 163L91 171Q81 222 92 260T130 328T187 385T247 437T296 492T315 557Q315 593 289 613T216 633Q190 633 160 627T98 608Q92 635 102 655T138 686T203 698Q252 698 288 680T345 629T366 547Q366 499 349 464T303 402T244
350T186 299T141 241T123 163ZM90 -10Q75 -10 63 -4T44 15T37 42Q37 57 43 68T62 87T90 94Q114 94 129 80T144 42Q144 20 129 5T90 -10Z" />
<glyph unicode="@" horiz-adv-x="894" d="M439 -228Q323 -228 240 -186T112 -66T67 118Q67 210 99 296T191 449T338 556T532 596Q628 596 698 562T806 465T844 316Q844 259 821 202T758 98T672 21T577 -8Q547 -8 534 8T520 50Q520 69 523 94T537 163T569 284H583Q549
197 507 132T421 29T343 -8Q310 -8 293 19T275 91Q275 162 298 224T359 333T442 408T533 435Q558 435 577 423T615 388L599 356Q583 374 560 382T513 391Q481 391 451 368T398 305T361 214T347 106Q347 79 352 64T367 48Q387 48 415 74T476 144T537 247T589 370L596
392L635 427H661Q648 370 635 312T611 200T593 106T586 43Q627 38 662 58T725 116T767 205T783 311Q784 387 753 441T666 525T532 555Q448 554 377 523T253 436T170 300T141 124Q141 -23 219 -103T443 -184Q489 -184 537 -172T623 -140L637 -175Q615 -190 582 -202T511
-221T439 -228Z" />
<glyph unicode="A" horiz-adv-x="576" d="M-40 0L-35 34L18 48L335 574L391 605L488 48L535 34L526 0H343L348 34L411 48L385 202L380 232L331 514L354 533L180 231L162 201L75 48L132 34L124 0H-40ZM132 189L142 238Q161 237 197 236T283 235Q332 235 368 236T422
238L411 189Q372 190 337 190T273 191Q245 191 211 191T132 189Z" />
<glyph unicode="B" horiz-adv-x="550" d="M77 48Q82 63 89 93T110 190L152 390Q167 460 173 493T180 539L122 553L132 587H345Q429 587 475 558T522 473Q522 433 499 397T437 337T354 308L340 315Q412 311 452 278T492 192Q492 138 460 95T367 26T224 0H8L14 34L77
48ZM177 177Q167 132 161 95T153 50Q165 47 188 45T230 42Q326 42 371 78T417 179Q417 230 381 255T268 281Q246 281 233 281T209 281T182 279L193 326Q214 325 232 324T277 323Q359 323 403 361T447 459Q447 547 328 547H257Q255 540 246 501T227 414L177 177Z"
/>
<glyph unicode="C" horiz-adv-x="599" d="M330 -9Q208 -9 137 55T65 228Q65 298 92 364T169 482T289 565T444 596Q492 596 537 589T617 566L595 434L555 432L547 521Q532 535 500 542T429 549Q361 549 310 522T224 450T172 349T155 236Q155 144 204 92T343 39Q373
39 400 45T450 66L513 161L559 157L507 33Q475 19 445 10T386 -4T330 -9Z" />
<glyph unicode="D" horiz-adv-x="676" d="M133 587H349Q487 587 564 530T641 359Q641 286 613 221T534 106T415 28T268 0H9L15 34L78 48Q83 63 92 100T111 190L153 390Q168 460 174 493T181 539L123 553L133 587ZM258 537Q254 523 246 491T223 391L181 190Q174
159 170 135T162 92T156 57Q190 53 217 51T279 48Q363 48 425 85T521 192T556 352Q556 451 502 497T340 544Q321 544 302 543T258 537Z" />
<glyph unicode="E" horiz-adv-x="550" d="M437 -5Q412 -2 393 -1T356 0H9L14 34L77 48Q80 58 84 74T94 117T110 190L152 390Q167 460 173 493T180 539L122 553L132 587H458Q470 587 483 587T511 589T543 591L531 461L489 456L476 540Q470 541 461 541T440 542H316Q297
542 284 542T256 539Q255 536 251 519T242 477T231 427T221 384L181 196Q177 177 171 146T160 88T153 51Q165 49 178 48T209 47H319Q349 47 366 48T390 51L455 145L500 137L437 -5ZM369 206L371 275Q366 277 356 278T329 279H247Q236 279 220 279T185 277L196 326Q214
325 229 325T256 325H337Q353 325 363 326T381 328L409 398H448L407 206H369Z" />
<glyph unicode="F" horiz-adv-x="498" d="M14 0L19 34L78 48Q81 58 84 74T94 117T110 190L153 390Q163 436 168 465T177 511T181 539L124 553L134 587H455Q467 587 478 587T505 588T541 591L529 461L486 456L473 540Q470 541 461 541T440 542H320Q306 542 287
541T257 540Q256 537 251 517T240 470T228 417T219 380L183 205Q171 149 166 118T158 72T154 48L232 36L223 0H14ZM364 199L367 272Q361 274 349 274T319 275H230Q222 275 211 275T181 274L190 324Q203 323 215 323T240 322H330Q350 322 360 323T378 326L406 395H444L403
199H364Z" />
<glyph unicode="G" horiz-adv-x="646" d="M341 -9Q209 -9 137 55T64 228Q64 300 92 366T170 484T291 566T447 596Q493 596 539 589T621 565L601 437L558 435L551 521Q532 534 499 541T430 549Q365 549 314 524T227 454T173 354T154 236Q154 144 204 91T347 38Q366
38 391 42T444 55T493 81L458 23L480 130Q486 154 489 173T495 206T497 228L433 238L442 274H620L615 240L570 229Q568 226 565 208T555 161Q547 120 542 95T533 44Q507 28 472 17T402 -2T341 -9Z" />
<glyph unicode="H" horiz-adv-x="664" d="M175 275L188 329Q219 328 259 327T357 326Q414 326 455 327T526 329L515 275Q480 278 443 278T347 279Q287 279 249 279T175 275ZM8 0L13 34L77 48Q80 58 84 74T94 117T110 190L152 390Q167 460 173 493T180 539L122
553L132 587H328L323 553L258 539Q255 526 246 492T222 390L180 190Q169 140 164 112T157 70T154 48L212 34L203 0H8ZM372 0L377 34L441 48Q444 58 448 74T458 117T474 190L517 390Q531 460 537 493T544 539L486 553L495 587H691L686 553L622 539Q619 526 610 492T586
390L544 190Q533 140 528 112T521 70T518 48L576 34L566 0H372Z" />
<glyph unicode="I" horiz-adv-x="301" d="M8 0L13 34L77 48Q82 63 89 92T111 190L153 390Q168 460 173 493T179 539L121 553L131 587H327L322 553L258 539Q255 526 246 492T222 390L180 190Q169 140 164 112T157 70T153 48L211 34L201 0H8Z" />
<glyph unicode="J" horiz-adv-x="301" d="M153 55Q139 -10 116 -58T61 -139T-4 -186T-74 -202Q-103 -202 -123 -190T-144 -157Q-144 -146 -140 -135T-124 -112Q-109 -124 -88 -131T-42 -138Q5 -138 28 -108T69 -1L153 389Q163 437 168 466T177 512T180 539L116
553L126 587H327L322 553L259 539Q255 525 246 491T223 390L153 55Z" />
<glyph unicode="K" horiz-adv-x="571" d="M319 0L325 34L391 44Q385 55 377 68T359 95L236 276H190L197 310L253 325L503 539L446 553L456 587H645L640 551L583 541L284 303L287 329L429 122Q440 106 449 92T467 67T481 48L528 35L520 0H319ZM10 0L16 34L79 48Q82
58 85 74T95 117T111 190L153 390Q168 460 173 493T180 539L122 553L132 587H327L322 553L259 539Q255 526 246 492T222 390L180 190Q169 140 164 112T157 70T154 48L214 34L205 0H10Z" />
<glyph unicode="L" horiz-adv-x="501" d="M416 -4Q399 -3 386 -2T362 -1T338 0H8L14 34L77 48Q80 58 84 74T95 117T111 190L153 390Q168 460 173 493T180 539L123 553L133 587H352L346 551L261 539Q257 526 248 492T224 390L181 190Q171 140 166 113T159 73T156
53Q169 52 182 52T213 51H301Q324 51 340 51T374 54L437 150L485 141L416 -4Z" />
<glyph unicode="M" horiz-adv-x="840" d="M141 587H301L404 99H391L705 587H858L853 553L790 540Q788 535 783 513T771 462T760 405L719 201Q706 135 700 98T691 47L749 34L740 0H545L551 34L613 47Q615 55 620 77T631 130T644 192L719 558H740L377 -3H350L229
558H243L171 218Q159 158 152 123T141 70T138 48L202 34L192 0H2L7 34L78 48Q80 59 89 95T114 203L160 405Q167 439 175 476T188 539L131 553L141 587Z" />
<glyph unicode="N" horiz-adv-x="669" d="M483 123L537 376Q549 431 555 463T564 513T568 539L504 553L513 587H694L688 553L625 539Q623 530 619 513T607 464T587 376L534 125Q528 98 522 65T508 -4H470L215 504H228L168 221Q163 195 156 160T144 93T136 48L200
34L191 0H9L14 34L78 48Q82 60 92 105T118 224L154 394Q168 462 173 497T180 539L123 553L133 587H260L492 126L483 123Z" />
<glyph unicode="O" horiz-adv-x="681" d="M307 -9Q232 -9 178 20T94 102T64 228Q64 302 92 368T168 486T280 566T415 596Q489 596 541 568T622 486T650 362Q650 289 623 222T547 103T437 21T307 -9ZM324 39Q393 39 448 80T535 194T567 354Q567 445 523 498T400
551Q331 551 275 509T185 396T152 237Q152 147 198 93T324 39Z" />
<glyph unicode="P" horiz-adv-x="500" d="M14 0L20 34L78 48Q82 61 87 80T98 127T111 190L154 390Q168 451 174 488T182 539L124 553L134 587H318Q404 587 452 551T500 449Q500 404 482 366T431 300T355 255T259 239Q239 239 220 241T178 251L189 295Q213 288
229 286T263 284Q341 284 383 325T426 440Q426 492 396 519T306 547H259Q258 541 252 515T239 455T223 390L182 190Q168 125 162 94T154 48L232 36L223 0H14Z" />
<glyph unicode="Q" horiz-adv-x="681" d="M533 -131Q514 -131 495 -128T449 -115T385 -88Q364 -77 335 -59T275 -23T217 4Q147 26 106 84T64 228Q64 302 92 368T168 485T280 566T416 596Q489 596 541 568T622 486T650 361Q650 288 623 222T548 105T439 23T311
-7L307 -1Q359 -2 394 -12T457 -37Q492 -56 524 -65T588 -74Q604 -74 619 -72T649 -65L657 -102Q632 -115 600 -123T533 -131ZM324 39Q393 39 448 80T535 194T567 354Q567 445 523 498T400 551Q331 551 275 509T185 396T152 237Q152 147 198 93T324 39Z" />
<glyph unicode="R" horiz-adv-x="552" d="M9 0L15 34L78 48Q81 58 85 74T95 117T111 190L153 390Q168 460 174 493T181 539L123 553L133 587H330Q416 587 458 558T500 466Q500 416 468 373T382 303T264 276H187L194 317H268Q342 317 382 357T423 458Q423 505 395
526T312 547H258Q257 544 256 538T250 516T240 470T223 390L180 190Q173 154 168 129T160 89T156 64T153 48L210 34L201 0H9ZM472 -9Q434 -9 407 5T357 54T312 149L257 292L321 307L393 150Q414 104 432 78T469 41T515 27L506 -6Q499 -7 491 -8T472 -9Z" />
<glyph unicode="S" horiz-adv-x="471" d="M190 -9Q148 -9 104 1T26 28L49 152L89 154L94 67Q116 53 143 45T201 37Q238 37 269 49T320 86T340 147Q340 178 323 199T279 236T222 268T164 304T120 351T103 418Q103 461 122 494T174 551T248 585T335 597Q363 597
386 594T431 586T470 572L450 454L413 452L403 537Q376 553 322 553Q263 553 221 525T179 441Q179 411 196 390T240 352T297 318T355 281T399 235T416 171Q416 116 383 76T297 13T190 -9Z" />
<glyph unicode="T" horiz-adv-x="542" d="M582 591L570 433L531 428L512 541Q507 543 497 543T479 544H442Q432 544 413 544T378 542Q376 531 372 513T361 465T344 390L301 190Q291 140 286 112T279 70T276 48L357 36L348 0H107L112 36L197 48Q200 58 204 74T214
117T230 190L273 390Q287 458 294 494T304 542Q289 544 271 544T241 544H204Q196 544 188 544T170 541L104 427L63 433L119 591Q135 590 148 589T174 588T202 587H497Q513 587 525 587T551 589T582 591Z" />
<glyph unicode="U" horiz-adv-x="655" d="M128 587H328L322 553L259 539Q255 526 246 492T222 390L190 242Q169 143 199 96T313 49Q389 49 432 92T493 226L527 390Q541 460 547 493T553 539L486 553L496 587H686L681 553L618 539Q614 526 605 492T581 390L546
221Q523 107 460 49T301 -9Q189 -9 140 51T114 220L149 390Q164 460 169 493T176 539L118 553L128 587Z" />
<glyph unicode="V" horiz-adv-x="579" d="M222 -3L124 539L77 552L86 587H275L270 553L206 539L284 89H270L531 539L464 553L474 587H653L647 552L594 539L260 -3H222Z" />
<glyph unicode="W" horiz-adv-x="932" d="M536 453L257 -3H218L130 539L83 553L92 587H269L264 553L211 540L279 89H267L524 529L536 453ZM576 -3L494 539L447 553L457 587H641L635 553L573 540L637 89H623L881 539L814 553L824 587H1002L997 553L944 539L616 -3H576Z" />
<glyph unicode="X" horiz-adv-x="576" d="M524 0H329L334 34L398 50L293 261L270 301L149 539L101 553L110 587H309L304 553L237 539L327 360L348 319L485 50L533 34L524 0ZM494 539L422 553L432 587H617L612 553L558 539L348 319L293 261L94 50L163 34L154 0H-29L-23
34L31 50L270 301L327 360L494 539Z" />
<glyph unicode="Y" horiz-adv-x="530" d="M552 539L284 228L314 288L294 190Q286 155 282 131T275 90T271 64T268 48L335 35L326 0H113L119 35L192 48Q194 56 196 65T201 89T210 128T224 190L245 288L250 228L118 539L71 553L81 587H269L264 553L200 539L302 298H292L489
539L422 553L431 587H611L606 553L552 539Z" />
<glyph unicode="Z" horiz-adv-x="529" d="M433 -4Q415 -2 393 -1T349 0H91Q73 0 57 0T21 -2L28 30L471 572L468 542H233Q213 542 199 542T172 539L139 438H100L131 588Q153 587 171 587T209 587H480Q498 587 517 587T555 589L548 558L105 15L110 47H352Q361 47
370 48T386 51L453 160L490 157L433 -4Z" />
<glyph unicode="[" horiz-adv-x="318" d="M178 -220H17L217 722H378L368 679H275L93 -177H186L178 -220Z" />
<glyph unicode="\" horiz-adv-x="351" d="M238 -180H185L87 728H140L238 -180Z" />
<glyph unicode="]" horiz-adv-x="318" d="M-43 -220L-35 -177H59L241 679H148L157 722H317L117 -220H-43Z" />
<glyph unicode="^" horiz-adv-x="540" d="M372 560L475 126H419L324 530H359L91 126H27L315 560H372Z" />
<glyph unicode="_" horiz-adv-x="382" d="M-39 -54L-29 0H319L308 -54H-39Z" />
<glyph unicode="`" horiz-adv-x="600" d="M340 482L230 654L303 677L377 493L340 482Z" />
<glyph unicode="a" horiz-adv-x="467" d="M98 -8Q66 -8 49 19T31 91Q31 162 54 224T115 333T198 408T287 435Q313 435 332 423T371 388L355 356Q338 374 315 382T268 391Q236 391 206 368T153 305T117 214T103 106Q103 78 108 63T128 48Q145 48 171 73T229 142T291
244T343 370L352 392L390 427H422Q404 370 388 312T361 200T342 105T335 41Q358 53 378 71T418 114L440 87Q415 57 391 36T345 4T305 -8Q288 -8 280 2T272 31Q272 49 276 79T292 159T325 284H336Q305 197 263 132T177 29T98 -8Z" />
<glyph unicode="b" horiz-adv-x="440" d="M116 106Q116 75 129 58T169 41Q213 41 251 77T313 177T338 321Q338 349 331 365T313 381Q300 381 276 364T225 316T173 250T132 176T116 106ZM59 184L161 616L89 626L94 652L225 693L239 680Q233 654 227 628T215 580T204
539L171 404Q156 342 141 286T100 157H93Q127 247 173 309T264 403T342 435Q374 435 392 408T410 336Q410 267 385 205T322 95T240 20T159 -8Q111 -8 84 15T51 82T59 184Z" />
<glyph unicode="c" horiz-adv-x="350" d="M239 393Q208 393 177 365T125 286T105 162Q106 108 130 78T192 48Q211 48 242 63T303 121L325 91Q293 45 250 19T174 -8Q133 -8 102 10T52 62T34 143Q34 197 52 249T102 343T178 410T276 435Q313 435 336 422T360 383Q360
371 355 361T338 341Q313 366 288 379T239 393Z" />
<glyph unicode="d" horiz-adv-x="467" d="M99 -8Q66 -8 49 19T31 91Q31 161 54 223T115 333T198 408T288 435Q313 435 331 423T369 388L355 355Q339 373 317 382T271 391Q232 391 201 365T148 296T115 203T103 106Q103 79 108 64T128 48Q145 48 171 73T229 142T290
244T343 370L348 390L402 616L324 626L329 652L467 693L481 680Q474 654 463 609T439 511T413 410L371 240Q355 174 345 121T335 41Q358 53 378 71T418 114L440 87Q415 57 391 36T345 4T305 -8Q288 -8 280 2T272 31Q272 49 276 79T292 159T325 284H336Q305 197
263 132T177 29T99 -8Z" />
<glyph unicode="e" horiz-adv-x="380" d="M171 -8Q115 -8 75 32T35 143Q35 196 53 248T102 342T177 410T272 435Q319 435 342 413T365 362Q365 333 348 307T295 256T210 206T93 157V197Q158 222 203 245T273 295T298 351Q298 373 284 384T247 395Q209 395 177
365T125 282T105 162Q105 108 130 78T195 47Q219 47 251 63T313 121L335 91Q302 45 259 19T171 -8Z" />
<glyph unicode="f" horiz-adv-x="254" d="M41 379L47 408L126 425H183H286L276 379H41ZM339 698Q360 698 372 688T384 660Q384 649 379 638T362 616Q349 626 332 631T300 636Q270 636 242 611T203 527L184 425L180 393L109 34Q96 -31 74 -79T23 -161T-38 -210T-104
-227Q-125 -227 -138 -218T-151 -190Q-151 -178 -146 -167T-131 -145Q-116 -155 -97 -161T-62 -167Q-38 -167 -21 -154T10 -108T35 -16L129 463Q138 510 159 552T209 627T272 679T339 698Z" />
<glyph unicode="g" horiz-adv-x="447" d="M141 -228Q86 -228 46 -215T-17 -177T-39 -121Q-39 -81 -4 -48T95 8L130 1Q79 -24 54 -50T28 -111Q28 -145 58 -168T150 -191Q196 -191 232 -177T289 -137T310 -84Q310 -59 293 -47T227 -25L109 0L97 4Q63 11 46 27T29
63Q29 87 56 112T145 154L156 133Q126 125 113 111T100 85Q100 74 108 68T141 57L261 29Q318 15 343 -6T368 -63Q368 -107 337 -145T253 -205T141 -228ZM198 126Q137 126 100 159T63 245Q63 298 90 340T160 408T254 434Q294 434 323 418T367 375T383 314Q383 263
357 220T289 152T198 126ZM206 161Q236 161 260 181T300 237T315 315Q315 356 298 378T250 401Q219 401 193 380T152 324T136 248Q136 207 156 184T206 161ZM454 368L352 375L313 412L467 427L454 368Z" />
<glyph unicode="h" horiz-adv-x="478" d="M160 320Q154 296 149 274T136 221T115 144H106Q125 194 151 245T211 339T280 408T354 435Q382 435 397 419T413 375Q413 359 405 326T385 250T361 165T341 90T333 41Q355 53 375 71T415 114L438 87Q413 57 389 36T343
4T303 -8Q286 -8 277 2T268 29Q268 42 276 75T296 151T320 236T340 313T349 361Q349 382 327 382Q305 382 277 358T220 293T164 202T115 100T83 0H19Q43 76 60 143T90 263T109 347L171 616L99 626L104 652L237 693L251 680Q244 654 233 611T209 515T183 410L160
320Z" />
<glyph unicode="i" horiz-adv-x="268" d="M96 -8Q79 -8 70 3T60 31Q60 45 68 80T88 160T113 250T133 332T142 386Q120 375 100 357T59 309L37 340Q62 369 86 390T131 423T171 435Q189 435 198 425T207 394Q207 380 199 345T179 264T155 173T134 91T125 41Q148
53 168 71T208 114L230 87Q205 57 181 36T135 4T96 -8ZM202 554Q186 554 174 566T161 595Q161 616 170 631T194 654T224 662Q240 662 251 651T263 622Q263 600 254 585T232 562T202 554Z" />
<glyph unicode="j" horiz-adv-x="247" d="M104 218Q116 264 126 311T138 386Q116 375 96 357T55 309L33 340Q58 369 82 390T128 423T170 435Q188 435 196 425T205 396Q205 380 200 354T189 303T179 263L114 0Q102 -50 81 -92T21 -168T-82 -231L-96 -203Q-34 -171
-2 -130T46 -19L104 218ZM198 554Q182 554 170 566T157 595Q157 616 166 631T190 654T220 662Q236 662 247 651T259 622Q259 600 250 585T228 562T198 554Z" />
<glyph unicode="k" horiz-adv-x="430" d="M26 0Q43 67 59 134T91 267L170 616L98 626L103 652L235 693L250 680Q243 654 236 625T221 563T203 493L147 263Q131 197 117 132T88 0H26ZM280 -8Q260 -8 250 5T229 45L163 211H119L126 232L170 243L322 382L258 393L268
427H467L462 393L393 381L205 230L211 248Q241 180 267 123T308 41Q330 53 350 71T391 114L413 87Q388 57 364 36T319 4T280 -8Z" />
<glyph unicode="l" horiz-adv-x="241" d="M72 -8Q55 -8 47 2T38 28Q38 38 41 57T53 112T75 204L170 616L98 626L103 652L235 693L249 680Q239 640 228 597T203 491L126 165Q121 145 116 121T107 75T102 41Q125 53 145 71T185 114L207 87Q182 57 158 36T112 4T72 -8Z" />
<glyph unicode="m" horiz-adv-x="723" d="M547 -8Q530 -8 521 3T512 31Q512 43 520 76T540 151T564 236T584 313T592 361Q592 382 574 382Q554 382 529 358T474 293T418 202T370 100T339 0H276Q286 34 298 77T321 164T342 249T357 320T363 361Q363 382 344 382Q325
382 299 358T244 293T189 202T141 100T110 0H46Q63 57 79 116T107 228T126 323T133 387Q110 375 90 357T50 309L28 340Q53 370 77 391T124 424T163 435Q181 435 188 425T195 396Q195 379 191 349T176 270T143 144H133Q152 195 178 246T235 340T300 409T368 435Q395
435 411 419T427 377Q427 359 421 329T402 253T369 144H364Q381 193 407 244T464 338T530 408T597 435Q625 435 641 419T657 377Q657 361 649 327T629 250T605 165T585 90T577 41Q599 53 619 71T659 114L682 87Q657 57 633 36T587 4T547 -8Z" />
<glyph unicode="n" horiz-adv-x="501" d="M327 -8Q309 -8 300 3T291 31Q291 43 299 76T320 151T343 236T363 313T372 361Q372 382 351 382Q329 382 301 358T244 293T188 202T140 100T109 0H45Q62 57 78 116T106 228T125 323T132 387Q109 375 89 357T49 309L27
340Q52 370 76 391T123 424T162 435Q180 435 187 425T194 396Q194 379 190 349T175 270T142 144H132Q150 194 176 245T235 339T304 408T377 435Q406 435 421 419T436 375Q436 359 428 326T409 250T385 165T365 90T357 41Q379 53 399 71T439 114L461 87Q436 57 412
36T366 4T327 -8Z" />
<glyph unicode="o" horiz-adv-x="429" d="M164 -8Q129 -8 100 10T52 62T34 143Q34 196 51 248T100 342T173 410T264 435Q299 435 329 417T377 365T396 284Q396 231 378 179T329 85T255 18T164 -8ZM184 34Q217 34 243 55T287 110T316 186T326 271Q326 328 303 361T245
395Q213 395 187 374T143 319T114 242T104 155Q104 96 127 65T184 34Z" />
<glyph unicode="p" horiz-adv-x="474" d="M-59 -220L-55 -191L10 -176Q16 -155 23 -124T39 -59L97 187Q115 260 123 308T132 387Q109 375 89 357T49 309L27 340Q52 370 76 391T123 424T162 435Q180 435 187 425T194 396Q194 376 185 317T143 144H136Q169 231 211
296T296 398T374 435Q407 435 424 408T442 335Q442 265 419 203T358 94T275 19T185 -8Q159 -8 142 4T105 39L118 72Q135 54 157 46T202 38Q242 38 273 64T325 133T358 226T370 321Q370 352 364 365T347 379Q332 379 311 362T266 315T217 245T169 157T129 57L123
35L110 -25Q96 -91 88 -127T78 -176L156 -191L148 -220H-59Z" />
<glyph unicode="q" horiz-adv-x="446" d="M426 427Q417 399 410 375T396 327T382 273T368 203L322 -27Q309 -92 304 -127T296 -176L355 -191L346 -220H148L152 -191L227 -176Q232 -155 238 -124T251 -59L274 51Q283 93 295 146T330 284H340Q307 197 264 132T178
29T101 -8Q67 -8 50 19T31 91Q31 160 53 222T113 332T196 407T290 435Q318 435 336 423T374 388L358 356Q342 374 319 382T271 391Q238 391 208 368T154 305T117 214T103 106Q103 77 109 63T127 48Q145 48 173 74T233 144T295 247T348 370L356 392L395 427H426Z"
/>
<glyph unicode="r" horiz-adv-x="342" d="M306 367Q284 367 263 344T223 285T184 206Q157 148 138 91T112 0H46Q63 57 78 116T106 228T125 323T132 387Q109 375 89 357T49 309L27 340Q52 370 76 391T122 424T161 435Q176 435 183 425T191 396Q191 379 187 345T167
250T118 91H113Q149 191 177 257T229 363T276 418T325 435Q345 435 356 425T368 396Q368 385 364 373T350 349Q340 359 328 363T306 367Z" />
<glyph unicode="s" horiz-adv-x="303" d="M110 -8Q81 -8 56 1T15 28T-1 64Q-1 76 3 86T15 105Q42 72 72 55T130 37Q159 37 176 52T194 96Q194 114 183 134T141 182Q107 215 89 237T65 276T59 309Q59 345 78 373T130 418T205 435Q227 435 249 429T285 411T300 382Q300
371 296 363T284 346Q261 369 234 381T179 393Q150 393 133 376T116 332Q116 320 121 307T138 278T172 241Q205 209 222 188T245 150T251 117Q251 83 231 55T179 9T110 -8Z" />
<glyph unicode="t" horiz-adv-x="291" d="M269 106Q222 38 181 15T112 -8Q82 -8 65 10T48 57Q48 68 50 81T57 116L119 379H49L53 397L197 511H212L185 402L121 123Q117 105 115 95T113 74Q113 45 139 45Q154 45 181 64T248 136L269 106ZM150 379L161 425H300L291
379H150Z" />
<glyph unicode="u" horiz-adv-x="495" d="M175 435Q192 435 201 425T210 396Q210 383 202 351T181 276T157 192T137 116T128 68Q128 59 133 53T150 47Q172 47 199 71T254 135T309 225T355 328T387 427H449Q432 370 416 312T388 200T369 105T362 41Q385 53 404
71T444 114L467 87Q442 57 418 36T372 4T332 -8Q315 -8 307 3T298 31Q298 49 303 79T319 158T352 284H363Q345 234 319 183T262 88T195 18T122 -8Q94 -8 79 8T63 52Q63 68 71 101T91 177T115 262T136 337T144 387Q122 375 102 357T61 309L40 340Q65 370 89 391T135
424T175 435Z" />
<glyph unicode="v" horiz-adv-x="413" d="M126 -4L116 153Q112 228 106 285T91 386Q57 361 29 311L4 339Q26 373 46 394T84 425T114 435Q134 435 143 424T157 381Q162 349 166 294T176 167L183 43L164 41Q220 97 256 155T311 266T329 359Q329 382 326 398T316
425Q322 431 330 433T347 435Q367 435 379 422T392 371Q392 335 375 288T327 191T255 90T165 -4H126Z" />
<glyph unicode="w" horiz-adv-x="628" d="M127 -4L117 156Q113 229 107 285T92 387Q57 360 30 311L5 339Q27 373 47 394T85 425T115 435Q135 435 144 424T158 381Q163 349 167 295T176 175L185 43H156L355 427H387L412 44L399 41Q453 97 483 151T527 258T540 359Q540
382 537 398T527 425Q535 431 542 433T559 435Q579 435 591 422T603 371Q603 328 589 280T548 183T484 87T401 -4H357L335 346H355L173 -4H127Z" />
<glyph unicode="x" horiz-adv-x="428" d="M263 -8Q248 -8 242 -1T230 24Q210 119 188 207T140 388Q92 365 51 308L29 340Q54 370 78 391T125 424T166 435Q178 435 187 427T200 402Q222 308 244 221T291 42Q312 54 332 72T373 115L394 87Q369 57 344 36T297 4T263
-8ZM41 -8Q16 -8 3 3T-11 34Q-11 43 -6 54T9 77Q24 66 36 63T58 59Q72 59 90 69T133 113T192 219L212 200Q170 85 128 39T41 -8ZM229 209L209 227Q252 343 294 389T383 435Q405 435 417 425T430 396Q430 386 425 375T410 352Q395 363 383 366T362 370Q352 370 340
366T313 346T276 298T229 209Z" />
<glyph unicode="y" horiz-adv-x="413" d="M-82 -227Q-110 -227 -123 -214T-137 -185Q-137 -173 -132 -163T-117 -140Q-103 -153 -88 -159T-54 -166Q-20 -166 28 -135T137 -41L176 -6Q226 63 259 123T309 240T326 359Q326 383 323 397T314 425Q320 431 328 433T345
435Q364 435 377 422T390 372Q390 322 373 267T326 156T258 48T178 -49Q132 -98 93 -132T21 -187T-37 -217T-82 -227ZM127 -71Q126 -36 124 13T118 117T110 224T100 320T90 386Q55 361 28 311L3 339Q25 373 45 394T83 425T113 435Q133 435 142 424T156 381Q158
366 161 332T169 252T176 157T182 62T186 -18L127 -71Z" />
<glyph unicode="z" horiz-adv-x="374" d="M76 48L68 52Q82 63 95 67T120 72Q132 72 154 68T202 59T248 49T275 45Q284 45 290 48T297 61Q297 69 290 84T269 119Q278 127 288 130T306 134Q317 134 330 125T343 92Q343 74 334 56T311 24T281 1T252 -8Q236 -8 210
-4T156 7T104 17T71 22Q55 22 41 15T13 -8L-8 10L291 377L302 373Q294 366 280 363T245 359Q234 359 214 362T172 370T132 378T106 381Q96 381 91 375T85 361Q85 353 90 341T112 303Q103 295 94 292T75 288Q65 288 52 297T39 330Q39 348 48 366T71 399T101 424T130
434Q145 434 169 430T219 422T268 413T303 409Q319 409 330 414T354 434L375 415L76 48Z" />
<glyph unicode="{" horiz-adv-x="365" d="M402 730L410 699Q337 695 303 657T268 557V431Q268 351 237 303T125 243L128 257Q175 250 197 227T220 164Q220 128 206 95T174 27T141 -41T127 -112Q127 -160 149 -175T215 -196L208 -228Q170 -228 138 -217T86 -180T66
-108Q66 -71 81 -35T116 37T151 105T167 165Q167 199 143 214T76 232L84 270Q156 274 182 303T208 396Q208 428 205 466T202 555Q202 592 216 624T257 679T321 716T402 730Z" />
<glyph unicode="|" horiz-adv-x="275" d="M17 -220L217 722H274L74 -220H17Z" />
<glyph unicode="}" horiz-adv-x="365" d="M-21 -228L-28 -197Q44 -192 79 -155T114 -55V71Q114 151 145 200T256 259L253 245Q206 252 184 276T162 338Q162 374 175 407T207 475T240 543T254 614Q254 662 233 677T165 698L173 730Q211 730 243 719T296 682T316
610Q316 573 301 537T265 465T230 397T214 337Q214 303 238 288T305 270L298 232Q225 228 200 199T174 106Q174 74 176 37T179 -53Q179 -90 165 -122T124 -177T61 -214T-21 -228Z" />
<glyph unicode="~" horiz-adv-x="540" d="M478 296L500 278Q475 236 440 213T367 189Q337 189 310 200T257 225T209 251T165 263Q141 263 119 250T79 211L57 228Q83 271 117 294T190 318Q219 318 246 307T299 281T348 256T391 245Q417 245 438 258T478 296Z" />
<glyph unicode="&#xa0;" horiz-adv-x="191" />
<glyph unicode="&#xa1;" horiz-adv-x="257" d="M153 248L81 -180Q79 -195 73 -206T58 -222T37 -228Q22 -228 13 -221T2 -200T5 -170L122 256L153 248ZM163 435Q187 435 202 421T217 383Q217 369 210 357T191 339T163 332Q140 332 125 346T109 383Q109 406 124
420T163 435Z" />
<glyph unicode="&#xa2;" horiz-adv-x="390" d="M149 -104L284 531H323L188 -104H149ZM259 393Q216 393 182 361T127 277T106 162Q106 108 137 78T212 48Q229 48 252 54T299 77T343 121L365 91Q333 45 287 19T184 -8Q138 -8 104 12T52 66T34 143Q34 197 52 249T105
343T187 410T294 435Q345 435 374 422T404 383Q404 371 399 361T382 341Q351 368 320 380T259 393Z" />
<glyph unicode="&#xa3;" horiz-adv-x="473" d="M43 280L51 321H378L369 280H43ZM14 -8L5 28Q76 46 110 83T144 182Q144 217 142 248T136 309T130 366T127 423Q127 456 147 487T201 542T280 581T371 596Q424 596 455 580T486 539Q486 510 455 492Q434 510 411 521T363
538T312 543Q263 542 237 514T210 437Q210 405 211 373T214 308T215 240Q215 203 206 170T180 110T138 62T78 24L81 34Q116 49 140 57T181 68T218 72Q248 72 276 65T326 58Q352 58 377 73T421 118L449 95Q413 41 380 18T307 -6Q290 -6 271 -4T230 2T183 9T128 12Q97
12 69 7T14 -8Z" />
<glyph unicode="&#xa4;" horiz-adv-x="540" d="M297 105Q237 105 188 135T109 216T79 330Q79 393 108 444T187 525T297 555Q357 555 406 525T485 444T515 330Q515 268 486 217T407 135T297 105ZM79 79L51 110L147 207L171 173L79 79ZM509 80L423 168L455 195L538
110L509 80ZM297 144Q337 144 370 168T423 234T443 328Q443 380 423 422T370 489T297 514Q255 514 222 489T169 422T150 328Q150 276 169 234T222 168T297 144ZM144 455L51 550L79 580L170 487L144 455ZM453 464L425 494L510 580L538 551L453 464Z" />
<glyph unicode="&#xa5;" horiz-adv-x="530" d="M87 244L96 285H461L453 244H87ZM62 123L71 163H436L428 123H62ZM552 539L284 228L314 288L293 190Q286 155 282 131T275 90T271 64T268 48L335 35L325 0H113L118 35L191 48Q193 56 195 65T201 89T210 128T224 190L245
288L250 228L118 539L71 553L80 587H268L263 553L200 539L301 298H292L488 539L421 553L431 587H610L605 553L552 539Z" />
<glyph unicode="&#xa6;" horiz-adv-x="275" d="M138 350L217 722H274L195 350H138ZM17 -220L96 152H153L74 -220H17Z" />
<glyph unicode="&#xa7;" horiz-adv-x="472" d="M177 -8Q141 -8 114 -3T65 9L71 107H113L128 42Q140 37 154 34T188 30Q237 30 259 50T282 99Q282 126 263 144T215 180T159 215T111 259T91 322Q91 353 105 379T144 425T199 455T262 468L288 451Q225 441 193 411T161
343Q161 311 180 291T229 254T287 221T336 181T356 121Q356 83 332 54T267 8T177 -8ZM266 219L239 237Q301 246 334 276T367 347Q367 378 347 398T299 434T241 466T192 506T172 566Q172 605 195 634T259 679T346 695Q369 695 388 693T424 688T455 678L448 587H407L393
644Q384 651 369 655T333 659Q288 659 267 638T246 587Q246 562 265 544T313 509T370 475T417 431T437 369Q437 337 423 310T384 264T330 233T266 219Z" />
<glyph unicode="&#xa8;" horiz-adv-x="600" d="M300 533Q282 533 270 544T258 574Q258 595 271 609T306 623Q323 623 334 612T345 582Q345 560 332 547T300 533ZM451 533Q433 533 421 544T409 574Q409 595 423 609T457 623Q475 623 486 612T497 582Q497 560 484
547T451 533Z" />
<glyph unicode="&#xa9;" horiz-adv-x="810" d="M434 -4Q360 -4 296 23T183 98T109 210T82 349Q82 424 108 488T183 600T295 675T434 702Q508 702 572 675T684 600T759 488T786 349Q786 274 759 210T685 98T573 23T434 -4ZM457 153Q393 153 342 175T261 241T231
348Q231 392 247 429T293 494T367 537T467 553Q495 553 527 548T584 532L589 436L556 434L535 500Q522 507 501 511T461 516Q409 516 376 496T327 441T311 362Q311 281 356 237T466 192Q486 192 505 197T540 213L570 273L603 270L583 185Q568 177 548 170T505 158T457
153ZM434 27Q502 27 559 51T660 120T728 222T753 350Q753 419 729 477T661 579T560 647T434 671Q366 671 308 647T206 579T138 477T113 350Q113 281 137 223T205 120T307 52T434 27Z" />
<glyph unicode="&#xaa;" horiz-adv-x="405" d="M130 223Q98 223 82 247T66 306Q66 365 85 417T138 509T210 572T289 595Q310 595 326 584T358 555L344 525Q331 540 313 546T275 553Q238 553 206 522T153 438T133 325Q133 275 150 275Q166 275 190 295T240 353T292
438T336 540L343 559L384 588H408Q393 541 380 492T357 398T341 318T334 265Q353 276 370 291T404 327L423 303Q402 278 382 260T344 233T310 223Q295 223 285 232T274 259Q274 280 284 327T321 467H334Q306 395 269 340T196 254T130 223Z" />
<glyph unicode="&#xab;" horiz-adv-x="532" d="M501 377L291 179L307 253L434 55L401 27L248 201L255 238L479 412L501 377ZM332 377L122 179L138 253L265 55L232 27L79 201L86 238L310 412L332 377Z" />
<glyph unicode="&#xac;" horiz-adv-x="540" d="M521 375L470 132H416L455 317H75L87 375H521Z" />
<glyph unicode="&#xad;" horiz-adv-x="368" d="M74 177L87 237L297 264L284 205L74 177Z" />
<glyph unicode="&#xae;" horiz-adv-x="810" d="M268 188L313 199Q313 202 313 213T314 246T315 300V413Q315 445 315 466T313 499T310 512L265 521L267 552H426Q471 552 502 541T549 509T565 453Q565 421 546 396T492 356T414 341H371V376Q381 375 390 375T409
375Q449 375 473 393T498 450Q498 486 477 502T418 518H379V300Q379 268 379 247T381 214T382 199L430 188L429 159H269L268 188ZM585 154Q551 154 525 166T477 203T437 270L398 351L455 365L526 257Q556 220 575 205T620 184L617 158Q609 157 601 156T585 154ZM434
-4Q360 -4 296 23T183 97T109 209T82 349Q82 424 108 488T183 600T295 675T434 702Q508 702 572 675T684 601T759 489T786 349Q786 274 759 210T685 98T573 23T434 -4ZM434 27Q501 27 559 51T660 120T728 223T753 350Q753 419 729 477T661 579T559 647T434 671Q366
671 308 647T206 579T138 477T113 350Q113 282 137 223T205 120T307 52T434 27Z" />
<glyph unicode="&#xaf;" horiz-adv-x="600" d="M243 604H523L512 553H231L243 604Z" />
<glyph unicode="&#xb0;" horiz-adv-x="349" d="M226 309Q185 309 153 327T101 379T81 453Q81 494 100 525T152 575T226 594Q267 594 299 576T350 526T369 453Q369 412 351 379T300 328T226 309ZM226 357Q265 357 290 384T315 453Q315 493 290 520T226 547Q187
547 161 520T135 453Q135 411 161 384T226 357Z" />
<glyph unicode="&#xb1;" horiz-adv-x="540" d="M509 318L498 263H64L75 318H509ZM297 471H350L275 111H220L297 471ZM454 57L443 0H9L20 57H454Z" />
<glyph unicode="&#xb2;" horiz-adv-x="400" d="M59 226Q132 271 179 307T253 372T292 427T303 475Q303 503 284 519T228 536Q199 536 172 524T122 485L103 503Q129 544 170 568T260 593Q313 593 343 566T374 494Q374 459 354 425T300 359T225 300T143 251L132
258H285Q294 258 300 259T314 261L347 312L379 310L337 196Q329 197 320 197T300 198T280 199T259 199H107Q94 199 82 199T56 197L59 226Z" />
<glyph unicode="&#xb3;" horiz-adv-x="401" d="M190 193Q137 193 107 209T77 252Q77 274 95 288Q121 258 147 243T205 228Q243 228 270 252T298 319Q298 345 276 362T217 379Q206 379 194 378T170 375L173 411Q239 415 274 436T309 493Q309 514 293 526T248 538Q219
538 194 528T147 497L129 515Q152 550 192 571T277 593Q323 593 350 574T377 522Q377 484 345 451T257 403L252 413Q304 411 334 389T364 329Q364 291 339 260T273 211T190 193Z" />
<glyph unicode="&#xb4;" horiz-adv-x="600" d="M375 482L341 493L466 677L535 654L375 482Z" />
<glyph unicode="&#xb5;" horiz-adv-x="500" d="M453 114L475 87Q450 57 426 36T380 4T340 -8Q323 -8 315 3T306 31Q306 49 311 79T328 158T361 284H372Q353 234 328 183T271 88T205 18T136 -8Q115 -8 102 10T90 56L106 52Q103 26 99 -5T92 -69T87 -131Q86 -179
77 -203T42 -227Q28 -227 18 -219T6 -193T10 -150Q25 -96 43 -33T78 94T109 210Q118 249 127 283T142 345T149 387Q127 375 107 357T66 309L45 340Q70 370 94 391T140 424T180 435Q197 435 206 424T215 396Q215 383 207 351T187 276T163 192T144 116T136 68Q136
59 141 53T158 47Q179 47 206 71T261 135T316 225T363 328T395 427H457Q440 370 424 312T396 200T377 105T370 41Q393 53 413 71T453 114Z" />
<glyph unicode="&#xb6;" horiz-adv-x="521" d="M423 0H155L160 36L244 48Q247 58 251 74T261 117T277 190L326 420Q331 444 336 470T345 517T350 547H315Q239 547 196 502T152 387Q152 337 184 311T278 285Q300 285 329 290T391 306L380 258Q367 254 346 250T304
244T267 242Q177 242 126 276T74 375Q74 437 106 484T196 559T329 587H549L544 553L481 539Q477 526 468 492T444 390L401 190Q391 139 386 111T379 70T376 48L433 34L423 0ZM396 547L288 40H325L437 547H396Z" />
<glyph unicode="&#xb7;" horiz-adv-x="231" d="M117 167Q93 167 78 182T63 219Q63 235 69 246T88 264T116 271Q140 271 155 257T170 219Q170 198 155 183T117 167Z" />
<glyph unicode="&#xb8;" horiz-adv-x="600" d="M191 -223Q130 -223 95 -197L121 -161Q138 -173 156 -179T196 -185Q222 -185 237 -172T253 -140Q253 -123 240 -115T200 -106Q186 -106 181 -107L171 -88L250 13H298L208 -84L220 -53Q266 -53 292 -71T318 -122Q318
-149 301 -172T255 -209T191 -223Z" />
<glyph unicode="&#xb9;" horiz-adv-x="400" d="M265 337Q255 291 253 271T248 241L315 231L306 199H103L107 231L178 241Q182 252 187 271T202 337L223 438Q227 455 230 469T235 495T238 513L161 502L164 538L324 594Q315 564 307 526T290 452L265 337Z" />
<glyph unicode="&#xba;" horiz-adv-x="369" d="M185 223Q133 223 101 259T68 350Q68 398 84 442T129 520T194 575T269 595Q320 595 352 560T384 467Q384 419 368 375T323 297T259 243T185 223ZM202 262Q235 262 261 288T303 358T318 456Q318 501 300 528T252 556Q220
556 194 530T152 459T136 361Q136 316 153 289T202 262Z" />
<glyph unicode="&#xbb;" horiz-adv-x="532" d="M202 62L412 260L396 186L270 384L303 412L456 238L448 201L225 27L202 62ZM33 62L243 260L227 186L101 384L134 412L287 238L279 201L56 27L33 62Z" />
<glyph unicode="&#xbc;" horiz-adv-x="892" d="M265 337Q255 291 253 271T248 241L315 231L306 199H103L107 231L178 241Q182 252 187 271T202 337L223 438Q227 455 230 469T235 495T238 513L161 502L164 538L324 594Q315 564 307 526T290 452L265 337ZM243 -14L677
650L709 630L273 -33L243 -14ZM747 42L792 32L784 0H624L628 32L687 42L745 316L752 308L574 137L581 151H834L823 102H517V128L792 391H824Q818 367 812 341T801 287L747 42Z" />
<glyph unicode="&#xbd;" horiz-adv-x="892" d="M265 337Q255 291 253 271T248 241L315 231L306 199H103L107 231L178 241Q182 252 187 271T202 337L223 438Q227 455 230 469T235 495T238 513L161 502L164 538L324 594Q315 564 307 526T290 452L265 337ZM243 -14L677
650L709 630L273 -33L243 -14ZM509 27Q582 72 629 108T703 173T742 228T753 276Q753 304 734 320T678 337Q649 337 622 325T571 286L553 304Q579 345 620 369T709 394Q763 394 793 367T823 295Q823 260 803 226T749 160T674 101T593 52L581 59H735Q744 59 750 60T764
62L797 113L828 111L787 -3Q779 -2 770 -2T750 -1T729 0T709 0H557Q544 0 532 0T506 -2L509 27Z" />
<glyph unicode="&#xbe;" horiz-adv-x="893" d="M190 193Q137 193 107 209T77 252Q77 274 95 288Q121 258 147 243T205 228Q243 228 270 252T298 319Q298 345 276 362T217 379Q206 379 194 378T170 375L173 411Q239 415 274 436T309 493Q309 514 293 526T248 538Q219
538 194 528T147 497L129 515Q152 550 192 571T277 593Q323 593 350 574T377 522Q377 484 345 451T257 403L252 413Q304 411 334 389T364 329Q364 291 339 260T273 211T190 193ZM244 -14L678 650L710 630L274 -33L244 -14ZM748 42L793 32L785 0H625L629 32L688
42L746 316L753 308L575 137L582 151H835L824 102H518V128L793 391H825Q819 367 813 341T802 287L748 42Z" />
<glyph unicode="&#xbf;" horiz-adv-x="351" d="M218 263L250 255Q260 208 249 171T215 106T162 53T106 7T62 -38T44 -88Q44 -123 70 -142T142 -162Q168 -162 199 -155T261 -138Q268 -164 258 -184T221 -216T155 -227Q107 -227 71 -210T14 -159T-7 -79Q-7 -36 9
-7T51 46T105 89T159 132T201 187T218 263ZM251 435Q266 435 278 428T297 410T304 383Q304 369 298 357T279 339T251 332Q235 332 223 338T204 357T197 383Q197 406 212 420T251 435Z" />
<glyph unicode="&#xc0;" horiz-adv-x="576" d="M-40 0L-35 34L18 48L335 574L391 605L488 48L535 34L526 0H343L348 34L411 48L385 202L380 232L331 514L354 533L180 231L162 201L75 48L132 34L124 0H-40ZM132 189L142 238Q161 237 197 236T283 235Q332 235 368
236T422 238L411 189Q372 190 337 190T273 191Q245 191 211 191T132 189ZM612 897L530 1017L603 1040L649 910L612 897Z" />
<glyph unicode="&#xc1;" horiz-adv-x="576" d="M-40 0L-35 34L18 48L335 574L391 605L488 48L535 34L526 0H343L348 34L411 48L385 202L380 232L331 514L354 533L180 231L162 201L75 48L132 34L124 0H-40ZM132 189L142 238Q161 237 197 236T283 235Q332 235 368
236T422 238L411 189Q372 190 337 190T273 191Q245 191 211 191T132 189ZM648 897L614 910L697 1040L762 1017L648 897Z" />
<glyph unicode="&#xc2;" horiz-adv-x="576" d="M-40 0L-35 34L18 48L335 574L391 605L488 48L535 34L526 0H343L348 34L411 48L385 202L380 232L331 514L354 533L180 231L162 201L75 48L132 34L124 0H-40ZM132 189L142 238Q161 237 197 236T283 235Q332 235 368
236T422 238L411 189Q372 190 337 190T273 191Q245 191 211 191T132 189ZM799 918L767 896L618 989H677L502 896L471 918L620 1026H684L799 918Z" />
<glyph unicode="&#xc3;" horiz-adv-x="576" d="M-40 0L-35 34L18 48L335 574L391 605L488 48L535 34L526 0H343L348 34L411 48L385 202L380 232L331 514L354 533L180 231L162 201L75 48L132 34L124 0H-40ZM132 189L142 238Q161 237 197 236T283 235Q332 235 368
236T422 238L411 189Q372 190 337 190T273 191Q245 191 211 191T132 189ZM818 1015L847 997Q822 957 789 932T716 906Q691 906 663 920T606 949T551 964Q524 964 507 951T472 914L443 932Q468 972 502 997T575 1022Q601 1022 628 1008T684 980T739 965Q765 965
783 979T818 1015Z" />
<glyph unicode="&#xc4;" horiz-adv-x="576" d="M-40 0L-35 34L18 48L335 574L391 605L488 48L535 34L526 0H343L348 34L411 48L385 202L380 232L331 514L354 533L180 231L162 201L75 48L132 34L124 0H-40ZM132 189L142 238Q161 237 197 236T283 235Q332 235 368
236T422 238L411 189Q372 190 337 190T273 191Q245 191 211 191T132 189ZM547 921Q529 921 517 932T505 962Q505 983 518 997T552 1011Q570 1011 581 1000T592 970Q592 948 579 935T547 921ZM738 921Q720 921 708 932T696 962Q696 983 710 997T743 1011Q762 1011
772 1000T783 970Q783 948 771 935T738 921Z" />
<glyph unicode="&#xc5;" horiz-adv-x="576" d="M-40 0L-35 34L18 48L335 574L391 605L488 48L535 34L526 0H343L348 34L411 48L385 202L380 232L331 514L354 533L180 231L162 201L75 48L132 34L124 0H-40ZM132 189L142 238Q161 237 197 236T283 235Q332 235 368
236T422 238L411 189Q372 190 337 190T273 191Q245 191 211 191T132 189ZM652 903Q611 903 583 929T555 995Q555 1034 583 1061T652 1088Q694 1088 720 1062T747 996Q747 957 720 930T652 903ZM653 933Q679 933 696 950T713 996Q713 1025 696 1042T653 1060Q627
1060 610 1043T592 997Q592 969 609 951T653 933Z" />
<glyph unicode="&#xc6;" horiz-adv-x="797" d="M683 -5Q660 -2 646 -1T623 0T602 0H267L273 34L336 48Q339 58 344 80T359 150L439 525L476 546L71 48L129 34L119 0H-54L-49 34L5 48L447 573L451 539L365 553L375 587H704Q721 587 734 587T760 588T789 591L778
461L734 456L723 540Q718 541 709 541T689 542H573Q559 542 544 542T514 539Q513 536 509 519T498 477T487 427T477 384L437 197Q434 183 430 160T422 114T414 72T409 50Q425 49 434 48T467 47H563Q594 47 611 48T635 51L701 145L746 137L683 -5ZM164 186L184 235Q194
234 210 234T249 233T297 232Q337 232 365 233T406 235L396 185Q390 187 368 187T286 187Q246 187 217 187T164 186ZM614 207L617 277Q611 278 601 279T575 280H502Q490 280 476 279T443 277L453 326Q472 325 485 325T511 325H583Q598 325 609 325T627 327L655
398H694L653 207H614Z" />
<glyph unicode="&#xc7;" horiz-adv-x="599" d="M330 -9Q208 -9 137 55T65 228Q65 298 92 364T169 482T289 565T444 596Q492 596 537 589T617 566L595 434L555 432L547 521Q532 535 500 542T429 549Q361 549 310 522T224 450T172 349T155 236Q155 144 204 92T343
39Q373 39 400 45T450 66L513 161L559 157L507 33Q475 19 445 10T386 -4T330 -9ZM242 -223Q181 -223 146 -197L172 -161Q189 -173 207 -179T247 -185Q273 -185 288 -172T304 -140Q304 -123 291 -115T251 -106Q237 -106 232 -107L222 -88L301 13H349L259 -84L271
-53Q317 -53 343 -71T369 -122Q369 -149 352 -172T306 -209T242 -223Z" />
<glyph unicode="&#xc8;" horiz-adv-x="550" d="M437 -5Q412 -2 393 -1T356 0H9L14 34L77 48Q80 58 84 74T94 117T110 190L152 390Q167 460 173 493T180 539L122 553L132 587H458Q470 587 483 587T511 589T543 591L531 461L489 456L476 540Q470 541 461 541T440
542H316Q297 542 284 542T256 539Q255 536 251 519T242 477T231 427T221 384L181 196Q177 177 171 146T160 88T153 51Q165 49 178 48T209 47H319Q349 47 366 48T390 51L455 145L500 137L437 -5ZM369 206L371 275Q366 277 356 278T329 279H247Q236 279 220 279T185
277L196 326Q214 325 229 325T256 325H337Q353 325 363 326T381 328L409 398H448L407 206H369ZM607 897L525 1017L598 1040L644 910L607 897Z" />
<glyph unicode="&#xc9;" horiz-adv-x="550" d="M437 -5Q412 -2 393 -1T356 0H9L14 34L77 48Q80 58 84 74T94 117T110 190L152 390Q167 460 173 493T180 539L122 553L132 587H458Q470 587 483 587T511 589T543 591L531 461L489 456L476 540Q470 541 461 541T440
542H316Q297 542 284 542T256 539Q255 536 251 519T242 477T231 427T221 384L181 196Q177 177 171 146T160 88T153 51Q165 49 178 48T209 47H319Q349 47 366 48T390 51L455 145L500 137L437 -5ZM369 206L371 275Q366 277 356 278T329 279H247Q236 279 220 279T185
277L196 326Q214 325 229 325T256 325H337Q353 325 363 326T381 328L409 398H448L407 206H369ZM643 897L609 910L692 1040L757 1017L643 897Z" />
<glyph unicode="&#xca;" horiz-adv-x="550" d="M437 -5Q412 -2 393 -1T356 0H9L14 34L77 48Q80 58 84 74T94 117T110 190L152 390Q167 460 173 493T180 539L122 553L132 587H458Q470 587 483 587T511 589T543 591L531 461L489 456L476 540Q470 541 461 541T440
542H316Q297 542 284 542T256 539Q255 536 251 519T242 477T231 427T221 384L181 196Q177 177 171 146T160 88T153 51Q165 49 178 48T209 47H319Q349 47 366 48T390 51L455 145L500 137L437 -5ZM369 206L371 275Q366 277 356 278T329 279H247Q236 279 220 279T185
277L196 326Q214 325 229 325T256 325H337Q353 325 363 326T381 328L409 398H448L407 206H369ZM794 918L762 896L613 989H672L497 896L466 918L615 1026H679L794 918Z" />
<glyph unicode="&#xcb;" horiz-adv-x="550" d="M437 -5Q412 -2 393 -1T356 0H9L14 34L77 48Q80 58 84 74T94 117T110 190L152 390Q167 460 173 493T180 539L122 553L132 587H458Q470 587 483 587T511 589T543 591L531 461L489 456L476 540Q470 541 461 541T440
542H316Q297 542 284 542T256 539Q255 536 251 519T242 477T231 427T221 384L181 196Q177 177 171 146T160 88T153 51Q165 49 178 48T209 47H319Q349 47 366 48T390 51L455 145L500 137L437 -5ZM369 206L371 275Q366 277 356 278T329 279H247Q236 279 220 279T185
277L196 326Q214 325 229 325T256 325H337Q353 325 363 326T381 328L409 398H448L407 206H369ZM542 921Q524 921 512 932T500 962Q500 983 513 997T547 1011Q565 1011 576 1000T587 970Q587 948 574 935T542 921ZM733 921Q715 921 703 932T691 962Q691 983 705
997T738 1011Q757 1011 767 1000T778 970Q778 948 766 935T733 921Z" />
<glyph unicode="&#xcc;" horiz-adv-x="301" d="M8 0L13 34L77 48Q82 63 89 92T111 190L153 390Q168 460 173 493T179 539L121 553L131 587H327L322 553L258 539Q255 526 246 492T222 390L180 190Q169 140 164 112T157 70T153 48L211 34L201 0H8ZM224 641L142 761L215
784L261 654L224 641Z" />
<glyph unicode="&#xcd;" horiz-adv-x="301" d="M8 0L13 34L77 48Q82 63 89 92T111 190L153 390Q168 460 173 493T179 539L121 553L131 587H327L322 553L258 539Q255 526 246 492T222 390L180 190Q169 140 164 112T157 70T153 48L211 34L201 0H8ZM260 641L226 654L309
784L374 761L260 641Z" />
<glyph unicode="&#xce;" horiz-adv-x="301" d="M8 0L13 34L77 48Q82 63 89 92T111 190L153 390Q168 460 173 493T179 539L121 553L131 587H327L322 553L258 539Q255 526 246 492T222 390L180 190Q169 140 164 112T157 70T153 48L211 34L201 0H8ZM411 662L379 640L230
733H289L114 640L83 662L232 770H296L411 662Z" />
<glyph unicode="&#xcf;" horiz-adv-x="301" d="M8 0L13 34L77 48Q82 63 89 92T111 190L153 390Q168 460 173 493T179 539L121 553L131 587H327L322 553L258 539Q255 526 246 492T222 390L180 190Q169 140 164 112T157 70T153 48L211 34L201 0H8ZM159 665Q141 665
129 676T117 706Q117 727 130 741T164 755Q182 755 193 744T204 714Q204 692 191 679T159 665ZM350 665Q332 665 320 676T308 706Q308 727 322 741T355 755Q374 755 384 744T395 714Q395 692 383 679T350 665Z" />
<glyph unicode="&#xd0;" horiz-adv-x="676" d="M133 587H349Q487 587 564 530T641 359Q641 286 613 221T534 106T415 28T268 0H9L15 34L78 48Q83 63 92 100T111 190L153 390Q168 460 174 493T181 539L123 553L133 587ZM258 537Q254 523 246 491T223 391L181 190Q174
159 170 135T162 92T156 57Q190 53 217 51T279 48Q363 48 425 85T521 192T556 352Q556 451 502 497T340 544Q321 544 302 543T258 537ZM310 527L319 573H630L621 527H310Z" />
<glyph unicode="&#xd1;" horiz-adv-x="669" d="M483 123L537 376Q549 431 555 463T564 513T568 539L504 553L513 587H694L688 553L625 539Q623 530 619 513T607 464T587 376L534 125Q528 98 522 65T508 -4H470L215 504H228L168 221Q163 195 156 160T144 93T136
48L200 34L191 0H9L14 34L78 48Q82 60 92 105T118 224L154 394Q168 462 173 497T180 539L123 553L133 587H260L492 126L483 123ZM615 1015L644 997Q619 957 586 932T513 906Q488 906 460 920T403 949T348 964Q321 964 304 951T269 914L240 932Q265 972 299 997T372
1022Q398 1022 425 1008T481 980T536 965Q562 965 580 979T615 1015Z" />
<glyph unicode="&#xd2;" horiz-adv-x="681" d="M307 -9Q232 -9 178 20T94 102T64 228Q64 302 92 368T168 486T280 566T415 596Q489 596 541 568T622 486T650 362Q650 289 623 222T547 103T437 21T307 -9ZM324 39Q393 39 448 80T535 194T567 354Q567 445 523 498T400
551Q331 551 275 509T185 396T152 237Q152 147 198 93T324 39ZM413 897L331 1017L404 1040L450 910L413 897Z" />
<glyph unicode="&#xd3;" horiz-adv-x="681" d="M307 -9Q232 -9 178 20T94 102T64 228Q64 302 92 368T168 486T280 566T415 596Q489 596 541 568T622 486T650 362Q650 289 623 222T547 103T437 21T307 -9ZM324 39Q393 39 448 80T535 194T567 354Q567 445 523 498T400
551Q331 551 275 509T185 396T152 237Q152 147 198 93T324 39ZM449 897L415 910L498 1040L563 1017L449 897Z" />
<glyph unicode="&#xd4;" horiz-adv-x="681" d="M307 -9Q232 -9 178 20T94 102T64 228Q64 302 92 368T168 486T280 566T415 596Q489 596 541 568T622 486T650 362Q650 289 623 222T547 103T437 21T307 -9ZM324 39Q393 39 448 80T535 194T567 354Q567 445 523 498T400
551Q331 551 275 509T185 396T152 237Q152 147 198 93T324 39ZM600 918L568 896L419 989H478L303 896L272 918L421 1026H485L600 918Z" />
<glyph unicode="&#xd5;" horiz-adv-x="681" d="M307 -9Q232 -9 178 20T94 102T64 228Q64 302 92 368T168 486T280 566T415 596Q489 596 541 568T622 486T650 362Q650 289 623 222T547 103T437 21T307 -9ZM324 39Q393 39 448 80T535 194T567 354Q567 445 523 498T400
551Q331 551 275 509T185 396T152 237Q152 147 198 93T324 39ZM619 1015L648 997Q623 957 590 932T517 906Q492 906 464 920T407 949T352 964Q325 964 308 951T273 914L244 932Q269 972 303 997T376 1022Q402 1022 429 1008T485 980T540 965Q566 965 584 979T619
1015Z" />
<glyph unicode="&#xd6;" horiz-adv-x="681" d="M307 -9Q232 -9 178 20T94 102T64 228Q64 302 92 368T168 486T280 566T415 596Q489 596 541 568T622 486T650 362Q650 289 623 222T547 103T437 21T307 -9ZM324 39Q393 39 448 80T535 194T567 354Q567 445 523 498T400
551Q331 551 275 509T185 396T152 237Q152 147 198 93T324 39ZM348 921Q330 921 318 932T306 962Q306 983 319 997T353 1011Q371 1011 382 1000T393 970Q393 948 380 935T348 921ZM539 921Q521 921 509 932T497 962Q497 983 511 997T544 1011Q563 1011 573 1000T584
970Q584 948 572 935T539 921Z" />
<glyph unicode="&#xd7;" horiz-adv-x="540" d="M484 462L513 420L58 46L26 86L484 462ZM132 462L449 82L409 45L90 425L132 462Z" />
<glyph unicode="&#xd8;" horiz-adv-x="681" d="M307 -9Q232 -9 178 20T94 102T64 228Q64 302 92 368T168 486T280 566T415 596Q489 596 541 568T622 486T650 362Q650 289 623 222T547 103T437 21T307 -9ZM324 39Q393 39 448 80T535 194T567 354Q567 445 523 498T400
551Q331 551 275 509T185 396T152 237Q152 147 198 93T324 39ZM125 -41L89 -12L589 629L625 600L125 -41Z" />
<glyph unicode="&#xd9;" horiz-adv-x="655" d="M128 587H328L322 553L259 539Q255 526 246 492T222 390L190 242Q169 143 199 96T313 49Q389 49 432 92T493 226L527 390Q541 460 547 493T553 539L486 553L496 587H686L681 553L618 539Q614 526 605 492T581 390L546
221Q523 107 460 49T301 -9Q189 -9 140 51T114 220L149 390Q164 460 169 493T176 539L118 553L128 587ZM412 897L330 1017L403 1040L449 910L412 897Z" />
<glyph unicode="&#xda;" horiz-adv-x="655" d="M128 587H328L322 553L259 539Q255 526 246 492T222 390L190 242Q169 143 199 96T313 49Q389 49 432 92T493 226L527 390Q541 460 547 493T553 539L486 553L496 587H686L681 553L618 539Q614 526 605 492T581 390L546
221Q523 107 460 49T301 -9Q189 -9 140 51T114 220L149 390Q164 460 169 493T176 539L118 553L128 587ZM448 897L414 910L497 1040L562 1017L448 897Z" />
<glyph unicode="&#xdb;" horiz-adv-x="655" d="M128 587H328L322 553L259 539Q255 526 246 492T222 390L190 242Q169 143 199 96T313 49Q389 49 432 92T493 226L527 390Q541 460 547 493T553 539L486 553L496 587H686L681 553L618 539Q614 526 605 492T581 390L546
221Q523 107 460 49T301 -9Q189 -9 140 51T114 220L149 390Q164 460 169 493T176 539L118 553L128 587ZM599 918L567 896L418 989H477L302 896L271 918L420 1026H484L599 918Z" />
<glyph unicode="&#xdc;" horiz-adv-x="655" d="M128 587H328L322 553L259 539Q255 526 246 492T222 390L190 242Q169 143 199 96T313 49Q389 49 432 92T493 226L527 390Q541 460 547 493T553 539L486 553L496 587H686L681 553L618 539Q614 526 605 492T581 390L546
221Q523 107 460 49T301 -9Q189 -9 140 51T114 220L149 390Q164 460 169 493T176 539L118 553L128 587ZM347 921Q329 921 317 932T305 962Q305 983 318 997T352 1011Q370 1011 381 1000T392 970Q392 948 379 935T347 921ZM538 921Q520 921 508 932T496 962Q496
983 510 997T543 1011Q562 1011 572 1000T583 970Q583 948 571 935T538 921Z" />
<glyph unicode="&#xdd;" horiz-adv-x="530" d="M552 539L284 228L314 288L294 190Q286 155 282 131T275 90T271 64T268 48L335 35L326 0H113L119 35L192 48Q194 56 196 65T201 89T210 128T224 190L245 288L250 228L118 539L71 553L81 587H269L264 553L200 539L302
298H292L489 539L422 553L431 587H611L606 553L552 539ZM630 897L596 910L679 1040L744 1017L630 897Z" />
<glyph unicode="&#xde;" horiz-adv-x="499" d="M13 0L19 34L77 48Q80 58 84 74T94 117T110 190L152 390Q167 460 173 493T180 539L122 553L132 587H323L318 553L255 539Q254 534 251 523T244 494L234 450L230 479H293Q379 479 427 443T475 341Q475 281 443 234T357
159T235 131Q215 131 196 133T154 142L164 185Q188 178 204 176T239 173Q316 173 358 215T401 331Q401 383 372 410T282 438H232L165 123Q161 105 157 86T150 48L228 36L219 0H13Z" />
<glyph unicode="&#xdf;" horiz-adv-x="477" d="M41 379L47 408L126 425H157L147 379H41ZM308 345Q308 318 321 296T355 253T395 213T428 169T442 117Q442 85 423 57T372 10T300 -8Q253 -8 219 13T184 64Q184 76 188 86T202 105Q229 71 258 54T316 37Q350 37 367
52T384 97Q384 120 371 139T338 177T298 216T265 261T252 317Q252 353 266 379T300 429T341 475T376 526T390 591Q390 625 371 643T321 662Q275 662 245 619T197 489L109 34Q97 -31 74 -80T22 -161T-40 -210T-104 -227Q-125 -227 -138 -218T-151 -190Q-151 -178
-146 -167T-131 -145Q-116 -155 -98 -161T-62 -167Q-38 -167 -21 -154T10 -108T35 -16L129 463Q152 577 206 637T337 698Q368 698 393 687T434 653T450 594Q450 563 436 537T400 488T358 442T323 396T308 345Z" />
<glyph unicode="&#xe0;" horiz-adv-x="467" d="M98 -8Q66 -8 49 19T31 91Q31 162 54 224T115 333T198 408T287 435Q313 435 332 423T371 388L355 356Q338 374 315 382T268 391Q236 391 206 368T153 305T117 214T103 106Q103 78 108 63T128 48Q145 48 171 73T229
142T291 244T343 370L352 392L390 427H422Q404 370 388 312T361 200T342 105T335 41Q358 53 378 71T418 114L440 87Q415 57 391 36T345 4T305 -8Q288 -8 280 2T272 31Q272 49 276 79T292 159T325 284H336Q305 197 263 132T177 29T98 -8ZM533 482L423 654L496 677L570
493L533 482Z" />
<glyph unicode="&#xe1;" horiz-adv-x="467" d="M98 -8Q66 -8 49 19T31 91Q31 162 54 224T115 333T198 408T287 435Q313 435 332 423T371 388L355 356Q338 374 315 382T268 391Q236 391 206 368T153 305T117 214T103 106Q103 78 108 63T128 48Q145 48 171 73T229
142T291 244T343 370L352 392L390 427H422Q404 370 388 312T361 200T342 105T335 41Q358 53 378 71T418 114L440 87Q415 57 391 36T345 4T305 -8Q288 -8 280 2T272 31Q272 49 276 79T292 159T325 284H336Q305 197 263 132T177 29T98 -8ZM568 482L534 493L659 677L728
654L568 482Z" />
<glyph unicode="&#xe2;" horiz-adv-x="467" d="M98 -8Q66 -8 49 19T31 91Q31 162 54 224T115 333T198 408T287 435Q313 435 332 423T371 388L355 356Q338 374 315 382T268 391Q236 391 206 368T153 305T117 214T103 106Q103 78 108 63T128 48Q145 48 171 73T229
142T291 244T343 370L352 392L390 427H422Q404 370 388 312T361 200T342 105T335 41Q358 53 378 71T418 114L440 87Q415 57 391 36T345 4T305 -8Q288 -8 280 2T272 31Q272 49 276 79T292 159T325 284H336Q305 197 263 132T177 29T98 -8ZM689 493L655 482L548 637H606L456
482L421 493L548 662H611L689 493Z" />
<glyph unicode="&#xe3;" horiz-adv-x="467" d="M98 -8Q66 -8 49 19T31 91Q31 162 54 224T115 333T198 408T287 435Q313 435 332 423T371 388L355 356Q338 374 315 382T268 391Q236 391 206 368T153 305T117 214T103 106Q103 78 108 63T128 48Q145 48 171 73T229
142T291 244T343 370L352 392L390 427H422Q404 370 388 312T361 200T342 105T335 41Q358 53 378 71T418 114L440 87Q415 57 391 36T345 4T305 -8Q288 -8 280 2T272 31Q272 49 276 79T292 159T325 284H336Q305 197 263 132T177 29T98 -8ZM712 629L743 612Q723 572
696 547T638 521Q618 521 593 535T543 563T497 578Q474 578 460 565T431 528L399 545Q420 585 446 610T505 636Q526 636 550 622T600 594T647 579Q667 579 682 593T712 629Z" />
<glyph unicode="&#xe4;" horiz-adv-x="467" d="M98 -8Q66 -8 49 19T31 91Q31 162 54 224T115 333T198 408T287 435Q313 435 332 423T371 388L355 356Q338 374 315 382T268 391Q236 391 206 368T153 305T117 214T103 106Q103 78 108 63T128 48Q145 48 171 73T229
142T291 244T343 370L352 392L390 427H422Q404 370 388 312T361 200T342 105T335 41Q358 53 378 71T418 114L440 87Q415 57 391 36T345 4T305 -8Q288 -8 280 2T272 31Q272 49 276 79T292 159T325 284H336Q305 197 263 132T177 29T98 -8ZM493 533Q475 533 463 544T451
574Q451 595 464 609T499 623Q516 623 527 612T538 582Q538 560 525 547T493 533ZM644 533Q626 533 614 544T602 574Q602 595 616 609T650 623Q668 623 679 612T690 582Q690 560 677 547T644 533Z" />
<glyph unicode="&#xe5;" horiz-adv-x="467" d="M98 -8Q66 -8 49 19T31 91Q31 162 54 224T115 333T198 408T287 435Q313 435 332 423T371 388L355 356Q338 374 315 382T268 391Q236 391 206 368T153 305T117 214T103 106Q103 78 108 63T128 48Q145 48 171 73T229
142T291 244T343 370L352 392L390 427H422Q404 370 388 312T361 200T342 105T335 41Q358 53 378 71T418 114L440 87Q415 57 391 36T345 4T305 -8Q288 -8 280 2T272 31Q272 49 276 79T292 159T325 284H336Q305 197 263 132T177 29T98 -8ZM573 495Q532 495 504 522T476
589Q476 628 504 655T573 682Q614 682 641 656T668 589Q668 550 641 523T573 495ZM574 526Q600 526 616 543T633 590Q633 619 617 636T574 653Q548 653 531 636T513 590Q513 562 530 544T574 526Z" />
<glyph unicode="&#xe6;" horiz-adv-x="600" d="M124 -8Q91 -8 66 7T28 42T15 81Q15 125 51 156T168 204L407 253Q456 263 487 287T518 351Q518 373 503 384T467 395Q429 395 397 365T344 282T324 162Q324 108 349 78T415 47Q438 47 470 63T532 121L554 91Q522
45 478 19T389 -8Q345 -8 312 17T264 90T262 202L278 276Q286 315 275 340T243 378T196 390Q170 390 160 379T141 334L132 298Q118 294 102 294T73 302T61 324Q61 339 72 353T102 381T143 406T188 424T231 435Q258 435 282 424T323 392T340 345H330Q359 387 401
411T492 435Q540 435 562 413T585 362Q585 335 568 307T510 256T398 217L170 170Q126 161 109 144T92 99Q92 81 107 62T154 42Q179 42 212 62T265 115L284 92Q241 34 202 13T124 -8Z" />
<glyph unicode="&#xe7;" horiz-adv-x="350" d="M239 393Q208 393 177 365T125 286T105 162Q106 108 130 78T192 48Q211 48 242 63T303 121L325 91Q293 45 250 19T174 -8Q133 -8 102 10T52 62T34 143Q34 197 52 249T102 343T178 410T276 435Q313 435 336 422T360
383Q360 371 355 361T338 341Q313 366 288 379T239 393ZM345 -223Q284 -223 249 -197L275 -161Q292 -173 310 -179T350 -185Q376 -185 391 -172T407 -140Q407 -123 394 -115T354 -106Q340 -106 335 -107L325 -88L404 13H452L362 -84L374 -53Q420 -53 446 -71T472
-122Q472 -149 455 -172T409 -209T345 -223Z" />
<glyph unicode="&#xe8;" horiz-adv-x="380" d="M171 -8Q115 -8 75 32T35 143Q35 196 53 248T102 342T177 410T272 435Q319 435 342 413T365 362Q365 333 348 307T295 256T210 206T93 157V197Q158 222 203 245T273 295T298 351Q298 373 284 384T247 395Q209 395
177 365T125 282T105 162Q105 108 130 78T195 47Q219 47 251 63T313 121L335 91Q302 45 259 19T171 -8ZM488 482L378 654L451 677L525 493L488 482Z" />
<glyph unicode="&#xe9;" horiz-adv-x="380" d="M171 -8Q115 -8 75 32T35 143Q35 196 53 248T102 342T177 410T272 435Q319 435 342 413T365 362Q365 333 348 307T295 256T210 206T93 157V197Q158 222 203 245T273 295T298 351Q298 373 284 384T247 395Q209 395
177 365T125 282T105 162Q105 108 130 78T195 47Q219 47 251 63T313 121L335 91Q302 45 259 19T171 -8ZM523 482L489 493L614 677L683 654L523 482Z" />
<glyph unicode="&#xea;" horiz-adv-x="380" d="M171 -8Q115 -8 75 32T35 143Q35 196 53 248T102 342T177 410T272 435Q319 435 342 413T365 362Q365 333 348 307T295 256T210 206T93 157V197Q158 222 203 245T273 295T298 351Q298 373 284 384T247 395Q209 395
177 365T125 282T105 162Q105 108 130 78T195 47Q219 47 251 63T313 121L335 91Q302 45 259 19T171 -8ZM644 493L610 482L503 637H561L411 482L376 493L503 662H566L644 493Z" />
<glyph unicode="&#xeb;" horiz-adv-x="380" d="M171 -8Q115 -8 75 32T35 143Q35 196 53 248T102 342T177 410T272 435Q319 435 342 413T365 362Q365 333 348 307T295 256T210 206T93 157V197Q158 222 203 245T273 295T298 351Q298 373 284 384T247 395Q209 395
177 365T125 282T105 162Q105 108 130 78T195 47Q219 47 251 63T313 121L335 91Q302 45 259 19T171 -8ZM448 533Q430 533 418 544T406 574Q406 595 419 609T454 623Q471 623 482 612T493 582Q493 560 480 547T448 533ZM599 533Q581 533 569 544T557 574Q557 595
571 609T605 623Q623 623 634 612T645 582Q645 560 632 547T599 533Z" />
<glyph unicode="&#xec;" horiz-adv-x="268" d="M96 -8Q79 -8 70 3T60 31Q60 45 68 80T88 160T113 250T133 332T142 386Q120 375 100 357T59 309L37 340Q62 369 86 390T131 423T171 435Q189 435 198 425T207 394Q207 380 199 345T179 264T155 173T134 91T125 41Q148
53 168 71T208 114L230 87Q205 57 181 36T135 4T96 -8ZM168 482L58 654L131 677L205 493L168 482Z" />
<glyph unicode="&#xed;" horiz-adv-x="268" d="M96 -8Q79 -8 70 3T60 31Q60 45 68 80T88 160T113 250T133 332T142 386Q120 375 100 357T59 309L37 340Q62 369 86 390T131 423T171 435Q189 435 198 425T207 394Q207 380 199 345T179 264T155 173T134 91T125 41Q148
53 168 71T208 114L230 87Q205 57 181 36T135 4T96 -8ZM203 482L169 493L294 677L363 654L203 482Z" />
<glyph unicode="&#xee;" horiz-adv-x="268" d="M96 -8Q79 -8 70 3T60 31Q60 45 68 80T88 160T113 250T133 332T142 386Q120 375 100 357T59 309L37 340Q62 369 86 390T131 423T171 435Q189 435 198 425T207 394Q207 380 199 345T179 264T155 173T134 91T125 41Q148
53 168 71T208 114L230 87Q205 57 181 36T135 4T96 -8ZM324 493L290 482L183 637H241L91 482L56 493L183 662H246L324 493Z" />
<glyph unicode="&#xef;" horiz-adv-x="268" d="M96 -8Q79 -8 70 3T60 31Q60 45 68 80T88 160T113 250T133 332T142 386Q120 375 100 357T59 309L37 340Q62 369 86 390T131 423T171 435Q189 435 198 425T207 394Q207 380 199 345T179 264T155 173T134 91T125 41Q148
53 168 71T208 114L230 87Q205 57 181 36T135 4T96 -8ZM128 533Q110 533 98 544T86 574Q86 595 99 609T134 623Q151 623 162 612T173 582Q173 560 160 547T128 533ZM279 533Q261 533 249 544T237 574Q237 595 251 609T285 623Q303 623 314 612T325 582Q325 560
312 547T279 533Z" />
<glyph unicode="&#xf0;" horiz-adv-x="449" d="M369 380Q356 388 340 392T303 396Q238 396 194 364T128 277T106 155Q106 96 129 65T185 34Q229 34 259 64T310 142T339 243T349 341Q349 453 290 536T114 659L120 688H200Q270 664 319 615T395 500T422 361Q422
293 405 228T355 109T277 24T175 -8Q135 -8 104 9T54 63T35 151Q35 198 51 247T102 340T187 409T308 436Q325 436 344 433T379 424L369 380ZM114 513L99 547L433 698L448 664L114 513Z" />
<glyph unicode="&#xf1;" horiz-adv-x="501" d="M327 -8Q309 -8 300 3T291 31Q291 43 299 76T320 151T343 236T363 313T372 361Q372 382 351 382Q329 382 301 358T244 293T188 202T140 100T109 0H45Q62 57 78 116T106 228T125 323T132 387Q109 375 89 357T49 309L27
340Q52 370 76 391T123 424T162 435Q180 435 187 425T194 396Q194 379 190 349T175 270T142 144H132Q150 194 176 245T235 339T304 408T377 435Q406 435 421 419T436 375Q436 359 428 326T409 250T385 165T365 90T357 41Q379 53 399 71T439 114L461 87Q436 57 412
36T366 4T327 -8ZM731 629L762 612Q742 572 715 547T657 521Q637 521 612 535T562 563T516 578Q493 578 479 565T450 528L418 545Q439 585 465 610T524 636Q545 636 569 622T619 594T666 579Q686 579 701 593T731 629Z" />
<glyph unicode="&#xf2;" horiz-adv-x="429" d="M164 -8Q129 -8 100 10T52 62T34 143Q34 196 51 248T100 342T173 410T264 435Q299 435 329 417T377 365T396 284Q396 231 378 179T329 85T255 18T164 -8ZM184 34Q217 34 243 55T287 110T316 186T326 271Q326 328
303 361T245 395Q213 395 187 374T143 319T114 242T104 155Q104 96 127 65T184 34ZM511 482L401 654L474 677L548 493L511 482Z" />
<glyph unicode="&#xf3;" horiz-adv-x="429" d="M164 -8Q129 -8 100 10T52 62T34 143Q34 196 51 248T100 342T173 410T264 435Q299 435 329 417T377 365T396 284Q396 231 378 179T329 85T255 18T164 -8ZM184 34Q217 34 243 55T287 110T316 186T326 271Q326 328
303 361T245 395Q213 395 187 374T143 319T114 242T104 155Q104 96 127 65T184 34ZM546 482L512 493L637 677L706 654L546 482Z" />
<glyph unicode="&#xf4;" horiz-adv-x="429" d="M164 -8Q129 -8 100 10T52 62T34 143Q34 196 51 248T100 342T173 410T264 435Q299 435 329 417T377 365T396 284Q396 231 378 179T329 85T255 18T164 -8ZM184 34Q217 34 243 55T287 110T316 186T326 271Q326 328
303 361T245 395Q213 395 187 374T143 319T114 242T104 155Q104 96 127 65T184 34ZM667 493L633 482L526 637H584L434 482L399 493L526 662H589L667 493Z" />
<glyph unicode="&#xf5;" horiz-adv-x="429" d="M164 -8Q129 -8 100 10T52 62T34 143Q34 196 51 248T100 342T173 410T264 435Q299 435 329 417T377 365T396 284Q396 231 378 179T329 85T255 18T164 -8ZM184 34Q217 34 243 55T287 110T316 186T326 271Q326 328
303 361T245 395Q213 395 187 374T143 319T114 242T104 155Q104 96 127 65T184 34ZM690 629L721 612Q701 572 674 547T616 521Q596 521 571 535T521 563T475 578Q452 578 438 565T409 528L377 545Q398 585 424 610T483 636Q504 636 528 622T578 594T625 579Q645
579 660 593T690 629Z" />
<glyph unicode="&#xf6;" horiz-adv-x="429" d="M164 -8Q129 -8 100 10T52 62T34 143Q34 196 51 248T100 342T173 410T264 435Q299 435 329 417T377 365T396 284Q396 231 378 179T329 85T255 18T164 -8ZM184 34Q217 34 243 55T287 110T316 186T326 271Q326 328
303 361T245 395Q213 395 187 374T143 319T114 242T104 155Q104 96 127 65T184 34ZM471 533Q453 533 441 544T429 574Q429 595 442 609T477 623Q494 623 505 612T516 582Q516 560 503 547T471 533ZM622 533Q604 533 592 544T580 574Q580 595 594 609T628 623Q646
623 657 612T668 582Q668 560 655 547T622 533Z" />
<glyph unicode="&#xf7;" horiz-adv-x="540" d="M502 282L490 224H56L68 282H502ZM237 28Q217 28 203 42T189 76Q189 96 203 109T237 123Q256 123 270 110T284 76Q284 56 270 42T237 28ZM313 383Q294 383 280 397T266 431Q266 451 280 464T313 478Q333 478 346
465T360 431Q360 412 347 398T313 383Z" />
<glyph unicode="&#xf8;" horiz-adv-x="429" d="M164 -8Q129 -8 100 10T52 62T34 143Q34 196 51 248T100 342T173 410T264 435Q299 435 329 417T377 365T396 284Q396 231 378 179T329 85T255 18T164 -8ZM184 34Q217 34 243 55T287 110T316 186T326 271Q326 328
303 361T245 395Q213 395 187 374T143 319T114 242T104 155Q104 96 127 65T184 34ZM292 -46L261 -20L650 473L681 446L292 -46Z" />
<glyph unicode="&#xf9;" horiz-adv-x="495" d="M175 435Q192 435 201 425T210 396Q210 383 202 351T181 276T157 192T137 116T128 68Q128 59 133 53T150 47Q172 47 199 71T254 135T309 225T355 328T387 427H449Q432 370 416 312T388 200T369 105T362 41Q385 53
404 71T444 114L467 87Q442 57 418 36T372 4T332 -8Q315 -8 307 3T298 31Q298 49 303 79T319 158T352 284H363Q345 234 319 183T262 88T195 18T122 -8Q94 -8 79 8T63 52Q63 68 71 101T91 177T115 262T136 337T144 387Q122 375 102 357T61 309L40 340Q65 370 89
391T135 424T175 435ZM549 482L439 654L512 677L586 493L549 482Z" />
<glyph unicode="&#xfa;" horiz-adv-x="495" d="M175 435Q192 435 201 425T210 396Q210 383 202 351T181 276T157 192T137 116T128 68Q128 59 133 53T150 47Q172 47 199 71T254 135T309 225T355 328T387 427H449Q432 370 416 312T388 200T369 105T362 41Q385 53
404 71T444 114L467 87Q442 57 418 36T372 4T332 -8Q315 -8 307 3T298 31Q298 49 303 79T319 158T352 284H363Q345 234 319 183T262 88T195 18T122 -8Q94 -8 79 8T63 52Q63 68 71 101T91 177T115 262T136 337T144 387Q122 375 102 357T61 309L40 340Q65 370 89
391T135 424T175 435ZM584 482L550 493L675 677L744 654L584 482Z" />
<glyph unicode="&#xfb;" horiz-adv-x="495" d="M175 435Q192 435 201 425T210 396Q210 383 202 351T181 276T157 192T137 116T128 68Q128 59 133 53T150 47Q172 47 199 71T254 135T309 225T355 328T387 427H449Q432 370 416 312T388 200T369 105T362 41Q385 53
404 71T444 114L467 87Q442 57 418 36T372 4T332 -8Q315 -8 307 3T298 31Q298 49 303 79T319 158T352 284H363Q345 234 319 183T262 88T195 18T122 -8Q94 -8 79 8T63 52Q63 68 71 101T91 177T115 262T136 337T144 387Q122 375 102 357T61 309L40 340Q65 370 89
391T135 424T175 435ZM705 493L671 482L564 637H622L472 482L437 493L564 662H627L705 493Z" />
<glyph unicode="&#xfc;" horiz-adv-x="495" d="M175 435Q192 435 201 425T210 396Q210 383 202 351T181 276T157 192T137 116T128 68Q128 59 133 53T150 47Q172 47 199 71T254 135T309 225T355 328T387 427H449Q432 370 416 312T388 200T369 105T362 41Q385 53
404 71T444 114L467 87Q442 57 418 36T372 4T332 -8Q315 -8 307 3T298 31Q298 49 303 79T319 158T352 284H363Q345 234 319 183T262 88T195 18T122 -8Q94 -8 79 8T63 52Q63 68 71 101T91 177T115 262T136 337T144 387Q122 375 102 357T61 309L40 340Q65 370 89
391T135 424T175 435ZM509 533Q491 533 479 544T467 574Q467 595 480 609T515 623Q532 623 543 612T554 582Q554 560 541 547T509 533ZM660 533Q642 533 630 544T618 574Q618 595 632 609T666 623Q684 623 695 612T706 582Q706 560 693 547T660 533Z" />
<glyph unicode="&#xfd;" horiz-adv-x="413" d="M-82 -227Q-110 -227 -123 -214T-137 -185Q-137 -173 -132 -163T-117 -140Q-103 -153 -88 -159T-54 -166Q-20 -166 28 -135T137 -41L176 -6Q226 63 259 123T309 240T326 359Q326 383 323 397T314 425Q320 431 328
433T345 435Q364 435 377 422T390 372Q390 322 373 267T326 156T258 48T178 -49Q132 -98 93 -132T21 -187T-37 -217T-82 -227ZM127 -71Q126 -36 124 13T118 117T110 224T100 320T90 386Q55 361 28 311L3 339Q25 373 45 394T83 425T113 435Q133 435 142 424T156
381Q158 366 161 332T169 252T176 157T182 62T186 -18L127 -71ZM539 482L505 493L630 677L699 654L539 482Z" />
<glyph unicode="&#xfe;" horiz-adv-x="444" d="M-89 -220L-85 -191L-20 -176Q-14 -155 -7 -124T9 -59L68 183L166 616L93 626L98 652L232 693L245 680Q239 654 233 629T222 585T215 554L180 404Q170 363 161 325T140 243T114 144H106Q139 231 181 296T267 398T344
435Q377 435 394 408T412 335Q412 265 389 203T328 94T245 19T155 -8Q130 -8 112 4T75 39L89 72Q106 54 127 46T172 38Q212 38 243 64T295 133T328 226T340 321Q340 352 334 365T317 379Q302 379 281 362T236 315T187 245T139 157T99 57L93 35L80 -25Q66 -91 58
-127T48 -176L126 -191L118 -220H-89Z" />
<glyph unicode="&#xff;" horiz-adv-x="413" d="M-82 -227Q-110 -227 -123 -214T-137 -185Q-137 -173 -132 -163T-117 -140Q-103 -153 -88 -159T-54 -166Q-20 -166 28 -135T137 -41L176 -6Q226 63 259 123T309 240T326 359Q326 383 323 397T314 425Q320 431 328
433T345 435Q364 435 377 422T390 372Q390 322 373 267T326 156T258 48T178 -49Q132 -98 93 -132T21 -187T-37 -217T-82 -227ZM127 -71Q126 -36 124 13T118 117T110 224T100 320T90 386Q55 361 28 311L3 339Q25 373 45 394T83 425T113 435Q133 435 142 424T156
381Q158 366 161 332T169 252T176 157T182 62T186 -18L127 -71ZM464 533Q446 533 434 544T422 574Q422 595 435 609T470 623Q487 623 498 612T509 582Q509 560 496 547T464 533ZM615 533Q597 533 585 544T573 574Q573 595 587 609T621 623Q639 623 650 612T661
582Q661 560 648 547T615 533Z" />
<glyph unicode="&#x2013;" horiz-adv-x="500" d="M-4 195L6 242H506L496 195H-4Z" />
<glyph unicode="&#x2014;" horiz-adv-x="1000" d="M-3 195L5 242H1005L997 195H-3Z" />
<glyph unicode="&#x2018;" horiz-adv-x="229" d="M259 698L275 675Q238 649 218 622T198 569Q198 555 202 546T211 528T220 511T224 490Q224 470 208 455T168 439Q145 439 133 454T120 492Q120 526 139 566T190 641T259 698Z" />
<glyph unicode="&#x2019;" horiz-adv-x="229" d="M120 439L105 462Q142 488 161 515T181 568Q181 581 177 591T168 609T159 626T155 647Q155 667 172 682T212 698Q234 698 247 683T260 644Q260 611 241 571T190 496T120 439Z" />
<glyph unicode="&#x201a;" horiz-adv-x="229" d="M-8 -166L-23 -143Q14 -117 34 -89T54 -37Q54 -24 50 -14T41 4T32 22T28 42Q28 62 44 78T84 94Q107 94 119 79T132 40Q132 6 113 -34T62 -109T-8 -166Z" />
<glyph unicode="&#x201c;" horiz-adv-x="398" d="M428 698L444 675Q407 649 387 622T367 569Q367 555 371 546T380 528T389 511T393 490Q393 470 377 455T337 439Q314 439 302 454T289 492Q289 526 308 566T359 641T428 698ZM259 698L275 675Q238 649 218 622T198
569Q198 555 202 546T211 528T220 511T224 490Q224 470 208 455T168 439Q145 439 133 454T120 492Q120 526 139 566T190 641T259 698Z" />
<glyph unicode="&#x201d;" horiz-adv-x="398" d="M289 439L274 462Q311 488 330 515T350 568Q350 581 346 591T337 609T328 626T324 647Q324 667 341 682T381 698Q403 698 416 683T429 644Q429 611 410 571T359 496T289 439ZM120 439L105 462Q142 488 161 515T181
568Q181 581 177 591T168 609T159 626T155 647Q155 667 172 682T212 698Q234 698 247 683T260 644Q260 611 241 571T190 496T120 439Z" />
<glyph unicode="&#x201e;" horiz-adv-x="393" d="M156 -166L141 -143Q178 -117 198 -89T218 -37Q218 -24 214 -14T205 4T196 22T192 42Q192 62 208 78T248 94Q271 94 283 79T296 40Q296 6 277 -34T226 -109T156 -166ZM-8 -166L-23 -143Q14 -117 34 -89T54 -37Q54
-24 50 -14T41 4T32 22T28 42Q28 62 44 78T84 94Q107 94 119 79T132 40Q132 6 113 -34T62 -109T-8 -166Z" />
<glyph unicode="&#x2022;" horiz-adv-x="420" d="M209 57Q167 57 132 77T75 131T54 208Q54 252 75 287T131 343T209 364Q252 364 287 343T343 287T364 208Q364 166 343 132T287 77T209 57Z" />
<glyph unicode="&#x2039;" horiz-adv-x="363" d="M332 377L122 179L138 253L265 55L232 27L79 201L86 238L310 412L332 377Z" />
<glyph unicode="&#x203a;" horiz-adv-x="363" d="M33 62L243 260L227 186L101 384L134 412L287 238L279 201L56 27L33 62Z" />
</font>
</defs>
</svg>
